<svg width="18" height="21" viewBox="0 0 18 21" fill="none" xmlns="http://www.w3.org/2000/svg">
<path d="M13.75 6.75H17.5V17.375C17.5 18.2344 17.1875 18.9766 16.5625 19.6016C15.9375 20.2266 15.2344 20.5 14.375 20.5H3.125C2.26562 20.5 1.52344 20.2266 0.898438 19.6016C0.273438 18.9766 0 18.2344 0 17.375V6.75H3.75V5.5C3.75 4.60156 3.94531 3.78125 4.41406 3C4.84375 2.21875 5.42969 1.63281 6.21094 1.16406C6.99219 0.734375 7.8125 0.5 8.75 0.5C9.64844 0.5 10.4688 0.734375 11.25 1.16406C12.0312 1.63281 12.6172 2.21875 13.0859 3C13.5156 3.78125 13.75 4.60156 13.75 5.5V6.75ZM6.25 5.5V6.75H11.25V5.5C11.25 4.83594 10.9766 4.25 10.5078 3.74219C10 3.27344 9.41406 3 8.75 3C8.04688 3 7.46094 3.27344 6.99219 3.74219C6.48438 4.25 6.25 4.83594 6.25 5.5ZM12.5 10.1875C12.7344 10.1875 12.9688 10.1094 13.1641 9.91406C13.3203 9.75781 13.4375 9.52344 13.4375 9.25C13.4375 9.01562 13.3203 8.78125 13.1641 8.58594C12.9688 8.42969 12.7344 8.3125 12.5 8.3125C12.2266 8.3125 11.9922 8.42969 11.8359 8.58594C11.6406 8.78125 11.5625 9.01562 11.5625 9.25C11.5625 9.52344 11.6406 9.75781 11.8359 9.91406C11.9922 10.1094 12.2266 10.1875 12.5 10.1875ZM5 10.1875C5.23438 10.1875 5.46875 10.1094 5.66406 9.91406C5.82031 9.75781 5.9375 9.52344 5.9375 9.25C5.9375 9.01562 5.82031 8.78125 5.66406 8.58594C5.46875 8.42969 5.23438 8.3125 5 8.3125C4.72656 8.3125 4.49219 8.42969 4.33594 8.58594C4.14062 8.78125 4.0625 9.01562 4.0625 9.25C4.0625 9.52344 4.14062 9.75781 4.33594 9.91406C4.49219 10.1094 4.72656 10.1875 5 10.1875Z" fill="black"/>
</svg>
