<svg width="16" height="13" viewBox="0 0 16 13" fill="none" xmlns="http://www.w3.org/2000/svg">
<path d="M0 11.3125V6.5H15.75V11.3125C15.75 11.6953 15.6133 11.9961 15.3672 12.2422C15.0938 12.5156 14.793 12.625 14.4375 12.625H1.3125C0.929688 12.625 0.628906 12.5156 0.382812 12.2422C0.109375 11.9961 0 11.6953 0 11.3125ZM5.25 9.45312V10.5469C5.25 10.6562 5.27734 10.7383 5.33203 10.793C5.38672 10.8477 5.46875 10.875 5.57812 10.875H9.29688C9.37891 10.875 9.46094 10.8477 9.51562 10.793C9.57031 10.7383 9.625 10.6562 9.625 10.5469V9.45312C9.625 9.37109 9.57031 9.28906 9.51562 9.23438C9.46094 9.17969 9.37891 9.125 9.29688 9.125H5.57812C5.46875 9.125 5.38672 9.17969 5.33203 9.23438C5.27734 9.28906 5.25 9.37109 5.25 9.45312ZM1.75 9.45312V10.5469C1.75 10.6562 1.77734 10.7383 1.83203 10.793C1.88672 10.8477 1.96875 10.875 2.07812 10.875H4.04688C4.12891 10.875 4.21094 10.8477 4.26562 10.793C4.32031 10.7383 4.375 10.6562 4.375 10.5469V9.45312C4.375 9.37109 4.32031 9.28906 4.26562 9.23438C4.21094 9.17969 4.12891 9.125 4.04688 9.125H2.07812C1.96875 9.125 1.88672 9.17969 1.83203 9.23438C1.77734 9.28906 1.75 9.37109 1.75 9.45312ZM15.75 1.6875C15.75 1.33203 15.6133 1.03125 15.3672 0.757812C15.0938 0.511719 14.793 0.375 14.4375 0.375H1.3125C0.929688 0.375 0.628906 0.511719 0.382812 0.757812C0.109375 1.03125 0 1.33203 0 1.6875V3H15.75V1.6875Z" fill="white"/>
</svg>
