<svg width="28" height="23" viewBox="0 0 28 23" fill="none" xmlns="http://www.w3.org/2000/svg">
<path d="M6.5 5.21429C6.5 6.24442 5.67299 7.07143 4.64286 7.07143C3.61272 7.07143 2.78571 6.24442 2.78571 5.21429C2.78571 4.18415 3.61272 3.35714 4.64286 3.35714C5.67299 3.35714 6.5 4.18415 6.5 5.21429ZM21.981 13.5714C21.981 13.0781 21.7779 12.5993 21.4442 12.2511L11.0703 1.89174C10.3304 1.15179 8.92299 0.571427 7.89286 0.571427H1.85714C0.841518 0.571427 0 1.41295 0 2.42857V8.46429C0 9.49442 0.580357 10.9018 1.32031 11.6272L11.6942 22.0156C12.0279 22.3493 12.5067 22.5525 13 22.5525C13.4933 22.5525 13.9721 22.3493 14.3203 22.0156L21.4442 14.8772C21.7779 14.5435 21.981 14.0647 21.981 13.5714ZM27.5525 13.5714C27.5525 13.0781 27.3493 12.5993 27.0156 12.2511L16.6417 1.89174C15.9018 1.15179 14.4944 0.571427 13.4643 0.571427H10.2143C11.2444 0.571427 12.6518 1.15179 13.3917 1.89174L23.7656 12.2511C24.0993 12.5993 24.3025 13.0781 24.3025 13.5714C24.3025 14.0647 24.0993 14.5435 23.7656 14.8772L16.9464 21.6964C17.4397 22.2042 17.817 22.5525 18.5714 22.5525C19.0647 22.5525 19.5435 22.3493 19.8917 22.0156L27.0156 14.8772C27.3493 14.5435 27.5525 14.0647 27.5525 13.5714Z" fill="black"/>
</svg>
