<svg width="7" height="5" viewBox="0 0 7 5" fill="none" xmlns="http://www.w3.org/2000/svg">
<path d="M2.79297 4.125C2.87109 4.22266 2.98828 4.26172 3.125 4.26172C3.24219 4.26172 3.35938 4.22266 3.45703 4.125L6.11328 1.46875C6.19141 1.39062 6.25 1.27344 6.25 1.13672C6.25 1.01953 6.19141 0.902344 6.11328 0.804688L5.66406 0.375C5.56641 0.296875 5.44922 0.238281 5.33203 0.238281C5.19531 0.238281 5.07812 0.296875 5 0.375L3.125 2.25L1.25 0.375C1.15234 0.296875 1.03516 0.238281 0.917969 0.238281C0.78125 0.238281 0.664062 0.296875 0.585938 0.375L0.136719 0.804688C0.0390625 0.902344 0 1.01953 0 1.13672C0 1.27344 0.0390625 1.39062 0.136719 1.46875L2.79297 4.125Z" fill="black"/>
</svg>
