<svg width="14" height="10" viewBox="0 0 14 10" fill="none" xmlns="http://www.w3.org/2000/svg">
<path d="M3 6C3.25 6 3.5 6.125 3.6875 6.3125C3.875 6.5 4 6.75 4 7V9C4 9.28125 3.875 9.53125 3.6875 9.71875C3.5 9.90625 3.25 10 3 10H1C0.71875 10 0.46875 9.90625 0.28125 9.71875C0.09375 9.53125 0 9.28125 0 9V7C0 6.75 0.09375 6.5 0.28125 6.3125C0.46875 6.125 0.71875 6 1 6H3ZM8 6C8.25 6 8.5 6.125 8.6875 6.3125C8.875 6.5 9 6.75 9 7V9C9 9.28125 8.875 9.53125 8.6875 9.71875C8.5 9.90625 8.25 10 8 10H6C5.71875 10 5.46875 9.90625 5.28125 9.71875C5.09375 9.53125 5 9.28125 5 9V7C5 6.75 5.09375 6.5 5.28125 6.3125C5.46875 6.125 5.71875 6 6 6H8ZM13 6C13.25 6 13.5 6.125 13.6875 6.3125C13.875 6.5 14 6.75 14 7V9C14 9.28125 13.875 9.53125 13.6875 9.71875C13.5 9.90625 13.25 10 13 10H11C10.7188 10 10.4688 9.90625 10.2812 9.71875C10.0938 9.53125 10 9.28125 10 9V7C10 6.75 10.0938 6.5 10.2812 6.3125C10.4688 6.125 10.7188 6 11 6H13ZM3 0C3.25 0 3.5 0.125 3.6875 0.3125C3.875 0.5 4 0.75 4 1V3C4 3.28125 3.875 3.53125 3.6875 3.71875C3.5 3.90625 3.25 4 3 4H1C0.71875 4 0.46875 3.90625 0.28125 3.71875C0.09375 3.53125 0 3.28125 0 3V1C0 0.75 0.09375 0.5 0.28125 0.3125C0.46875 0.125 0.71875 0 1 0H3ZM8 0C8.25 0 8.5 0.125 8.6875 0.3125C8.875 0.5 9 0.75 9 1V3C9 3.28125 8.875 3.53125 8.6875 3.71875C8.5 3.90625 8.25 4 8 4H6C5.71875 4 5.46875 3.90625 5.28125 3.71875C5.09375 3.53125 5 3.28125 5 3V1C5 0.75 5.09375 0.5 5.28125 0.3125C5.46875 0.125 5.71875 0 6 0H8ZM13 0C13.25 0 13.5 0.125 13.6875 0.3125C13.875 0.5 14 0.75 14 1V3C14 3.28125 13.875 3.53125 13.6875 3.71875C13.5 3.90625 13.25 4 13 4H11C10.7188 4 10.4688 3.90625 10.2812 3.71875C10.0938 3.53125 10 3.28125 10 3V1C10 0.75 10.0938 0.5 10.2812 0.3125C10.4688 0.125 10.7188 0 11 0H13Z" fill="black"/>
</svg>
