<svg width="26" height="22" viewBox="0 0 26 22" fill="none" xmlns="http://www.w3.org/2000/svg">
<path d="M22.4688 2C23.5938 2.98438 24.3438 4.15625 24.7656 5.46875C25.0938 6.6875 25.0938 7.95312 24.7656 9.21875C24.3906 10.4844 23.8281 11.5625 22.9844 12.4062L14.7812 20.75C14.2656 21.2656 13.6562 21.5 13 21.5C12.2969 21.5 11.6875 21.2656 11.2188 20.75L3.01562 12.4062C2.17188 11.5625 1.5625 10.4844 1.23438 9.21875C0.859375 7.95312 0.90625 6.6875 1.28125 5.46875C1.65625 4.15625 2.40625 2.98438 3.53125 2C4.375 1.25 5.40625 0.78125 6.57812 0.59375C7.70312 0.40625 8.875 0.5 10 0.875C11.125 1.25 12.1562 1.85938 13 2.70312C13.8438 1.85938 14.8281 1.25 15.9531 0.875C17.0781 0.5 18.25 0.40625 19.4219 0.59375C20.5469 0.78125 21.5781 1.25 22.4688 2ZM21.3906 10.8125C21.9531 10.25 22.3281 9.5 22.5625 8.65625C22.7969 7.8125 22.7969 6.92188 22.5625 6.07812C22.2812 5.1875 21.7656 4.39062 21.0156 3.73438C20.0781 2.98438 19 2.65625 17.7812 2.75C16.5625 2.84375 15.4844 3.35938 14.6406 4.25L13 5.89062L11.3594 4.25C10.4688 3.35938 9.39062 2.84375 8.17188 2.75C6.95312 2.65625 5.875 2.98438 4.98438 3.73438C4.1875 4.39062 3.67188 5.1875 3.4375 6.07812C3.15625 6.92188 3.15625 7.8125 3.39062 8.65625C3.625 9.5 4.04688 10.25 4.60938 10.8125L12.8594 19.1562C12.9531 19.2969 13.0469 19.2969 13.1406 19.1562L21.3906 10.8125Z" fill="black"/>
</svg>
