<svg width="16" height="17" viewBox="0 0 16 17" fill="none" xmlns="http://www.w3.org/2000/svg">
<path d="M7.875 4.20703C8.57812 4.20703 9.24609 4.41797 9.87891 4.76953C10.5117 5.12109 11.0039 5.61328 11.3555 6.24609C11.707 6.87891 11.918 7.54688 11.918 8.25C11.918 8.98828 11.707 9.65625 11.3555 10.2891C11.0039 10.9219 10.5117 11.4141 9.87891 11.7656C9.24609 12.1172 8.57812 12.293 7.875 12.293C7.13672 12.293 6.46875 12.1172 5.83594 11.7656C5.20312 11.4141 4.71094 10.9219 4.35938 10.2891C4.00781 9.65625 3.83203 8.98828 3.83203 8.25C3.83203 7.54688 4.00781 6.87891 4.35938 6.24609C4.71094 5.61328 5.20312 5.12109 5.83594 4.76953C6.46875 4.41797 7.13672 4.20703 7.875 4.20703ZM7.875 10.8867C8.57812 10.8867 9.21094 10.6406 9.73828 10.1133C10.2305 9.62109 10.5117 8.98828 10.5117 8.25C10.5117 7.54688 10.2305 6.91406 9.73828 6.38672C9.21094 5.89453 8.57812 5.61328 7.875 5.61328C7.13672 5.61328 6.50391 5.89453 6.01172 6.38672C5.48438 6.91406 5.23828 7.54688 5.23828 8.25C5.23828 8.98828 5.48438 9.62109 6.01172 10.1133C6.50391 10.6406 7.13672 10.8867 7.875 10.8867ZM13.043 4.03125C13.043 3.78516 12.9375 3.57422 12.7617 3.36328C12.5508 3.1875 12.3398 3.08203 12.0938 3.08203C11.8125 3.08203 11.6016 3.1875 11.4258 3.36328C11.2148 3.57422 11.1445 3.78516 11.1445 4.03125C11.1445 4.3125 11.2148 4.52344 11.4258 4.69922C11.6016 4.91016 11.8125 4.98047 12.0938 4.98047C12.3398 4.98047 12.5508 4.91016 12.7266 4.69922C12.9023 4.52344 13.0078 4.3125 13.043 4.03125ZM15.7148 4.98047C15.7148 5.64844 15.75 6.73828 15.75 8.25C15.75 9.79688 15.7148 10.8867 15.6797 11.5547C15.6445 12.2227 15.5391 12.7852 15.3984 13.2773C15.1875 13.875 14.8359 14.4023 14.4141 14.8242C13.9922 15.2461 13.4648 15.5625 12.9023 15.7734C12.4102 15.9492 11.8125 16.0547 11.1445 16.0898C10.4766 16.125 9.38672 16.125 7.875 16.125C6.32812 16.125 5.23828 16.125 4.57031 16.0898C3.90234 16.0547 3.33984 15.9492 2.84766 15.7383C2.25 15.5625 1.72266 15.2461 1.30078 14.8242C0.878906 14.4023 0.5625 13.875 0.351562 13.2773C0.175781 12.7852 0.0703125 12.2227 0.0351562 11.5547C0 10.8867 0 9.79688 0 8.25C0 6.73828 0 5.64844 0.0351562 4.98047C0.0703125 4.3125 0.175781 3.71484 0.351562 3.22266C0.5625 2.66016 0.878906 2.13281 1.30078 1.71094C1.72266 1.28906 2.25 0.9375 2.84766 0.726562C3.33984 0.585938 3.90234 0.480469 4.57031 0.445312C5.23828 0.410156 6.32812 0.375 7.875 0.375C9.38672 0.375 10.4766 0.410156 11.1445 0.445312C11.8125 0.480469 12.4102 0.585938 12.9023 0.726562C13.4648 0.9375 13.9922 1.28906 14.4141 1.71094C14.8359 2.13281 15.1875 2.66016 15.3984 3.22266C15.5391 3.71484 15.6445 4.3125 15.7148 4.98047ZM14.0273 12.8906C14.168 12.5039 14.2383 11.8711 14.3086 10.9922C14.3086 10.5 14.3438 9.76172 14.3438 8.8125V7.6875C14.3438 6.73828 14.3086 6 14.3086 5.50781C14.2383 4.62891 14.168 3.99609 14.0273 3.60938C13.7461 2.90625 13.2188 2.37891 12.5156 2.09766C12.1289 1.95703 11.4961 1.88672 10.6172 1.81641C10.0898 1.81641 9.35156 1.78125 8.4375 1.78125H7.3125C6.36328 1.78125 5.625 1.81641 5.13281 1.81641C4.25391 1.88672 3.62109 1.95703 3.23438 2.09766C2.49609 2.37891 2.00391 2.90625 1.72266 3.60938C1.58203 3.99609 1.47656 4.62891 1.44141 5.50781C1.40625 6.03516 1.40625 6.77344 1.40625 7.6875V8.8125C1.40625 9.76172 1.40625 10.5 1.44141 10.9922C1.47656 11.8711 1.58203 12.5039 1.72266 12.8906C2.00391 13.6289 2.53125 14.1211 3.23438 14.4023C3.62109 14.543 4.25391 14.6484 5.13281 14.6836C5.625 14.7188 6.36328 14.7188 7.3125 14.7188H8.4375C9.38672 14.7188 10.125 14.7188 10.6172 14.6836C11.4961 14.6484 12.1289 14.543 12.5156 14.4023C13.2188 14.1211 13.7461 13.5938 14.0273 12.8906Z" fill="#DC2466"/>
</svg>
