<svg width="12" height="11" viewBox="0 0 12 11" fill="none" xmlns="http://www.w3.org/2000/svg">
<path opacity="0.3" d="M3 2.21875C3 2.33594 3.02344 2.42969 3.09375 2.5C3.16406 2.57031 3.25781 2.59375 3.375 2.59375H11.625C11.7188 2.59375 11.8125 2.57031 11.8828 2.5C11.9531 2.42969 12 2.33594 12 2.21875V1.28125C12 1.1875 11.9531 1.09375 11.8828 1.02344C11.8125 0.953125 11.7188 0.90625 11.625 0.90625H3.375C3.25781 0.90625 3.16406 0.953125 3.09375 1.02344C3.02344 1.09375 3 1.1875 3 1.28125V2.21875ZM3.375 6.34375C3.25781 6.34375 3.16406 6.32031 3.09375 6.25C3.02344 6.17969 3 6.08594 3 5.96875V5.03125C3 4.9375 3.02344 4.84375 3.09375 4.77344C3.16406 4.70312 3.25781 4.65625 3.375 4.65625H11.625C11.7188 4.65625 11.8125 4.70312 11.8828 4.77344C11.9531 4.84375 12 4.9375 12 5.03125V5.96875C12 6.08594 11.9531 6.17969 11.8828 6.25C11.8125 6.32031 11.7188 6.34375 11.625 6.34375H3.375ZM3.375 10.0938C3.25781 10.0938 3.16406 10.0703 3.09375 10C3.02344 9.92969 3 9.83594 3 9.71875V8.78125C3 8.6875 3.02344 8.59375 3.09375 8.52344C3.16406 8.45312 3.25781 8.40625 3.375 8.40625H11.625C11.7188 8.40625 11.8125 8.45312 11.8828 8.52344C11.9531 8.59375 12 8.6875 12 8.78125V9.71875C12 9.83594 11.9531 9.92969 11.8828 10C11.8125 10.0703 11.7188 10.0938 11.625 10.0938H3.375ZM0.375 2.875C0.257812 2.875 0.164062 2.85156 0.09375 2.78125C0.0234375 2.71094 0 2.61719 0 2.5V1C0 0.90625 0.0234375 0.8125 0.09375 0.742188C0.164062 0.671875 0.257812 0.625 0.375 0.625H1.875C1.96875 0.625 2.0625 0.671875 2.13281 0.742188C2.20312 0.8125 2.25 0.90625 2.25 1V2.5C2.25 2.61719 2.20312 2.71094 2.13281 2.78125C2.0625 2.85156 1.96875 2.875 1.875 2.875H0.375ZM0.375 6.625C0.257812 6.625 0.164062 6.60156 0.09375 6.53125C0.0234375 6.46094 0 6.36719 0 6.25V4.75C0 4.65625 0.0234375 4.5625 0.09375 4.49219C0.164062 4.42188 0.257812 4.375 0.375 4.375H1.875C1.96875 4.375 2.0625 4.42188 2.13281 4.49219C2.20312 4.5625 2.25 4.65625 2.25 4.75V6.25C2.25 6.36719 2.20312 6.46094 2.13281 6.53125C2.0625 6.60156 1.96875 6.625 1.875 6.625H0.375ZM0.375 10.375C0.257812 10.375 0.164062 10.3516 0.09375 10.2812C0.0234375 10.2109 0 10.1172 0 10V8.5C0 8.40625 0.0234375 8.3125 0.09375 8.24219C0.164062 8.17188 0.257812 8.125 0.375 8.125H1.875C1.96875 8.125 2.0625 8.17188 2.13281 8.24219C2.20312 8.3125 2.25 8.40625 2.25 8.5V10C2.25 10.1172 2.20312 10.2109 2.13281 10.2812C2.0625 10.3516 1.96875 10.375 1.875 10.375H0.375Z" fill="black"/>
</svg>
