<svg width="40" height="30" viewBox="0 0 40 30" fill="none" xmlns="http://www.w3.org/2000/svg">
<path d="M39.2188 9.92188C37.3438 11.4062 33.2812 14.375 27.1875 18.75L26.4062 19.375C25.1562 20.3125 24.2188 21.0156 23.4375 21.4062C22.1875 22.1875 21.0156 22.5 20 22.5C18.9062 22.5 17.8125 22.1875 16.5625 21.4844C15.7812 21.0938 14.8438 20.3906 13.5938 19.4531L12.8125 18.75C6.48438 14.2188 2.5 11.25 0.78125 9.92188C0.625 9.84375 0.390625 9.84375 0.234375 9.92188C0.078125 10 0 10.1562 0 10.3125V26.25C0 27.3438 0.3125 28.2031 1.09375 28.9062C1.79688 29.6875 2.65625 30 3.75 30H36.25C37.2656 30 38.125 29.6875 38.9062 28.9062C39.6094 28.2031 40 27.3438 40 26.25V10.3125C40 10.1562 39.8438 10 39.6875 9.84375C39.5312 9.76562 39.375 9.76562 39.2188 9.92188ZM20 20C19.2969 20 18.4375 19.6875 17.5 19.0625C16.875 18.75 16.0938 18.2031 15.0781 17.3438L14.2969 16.7969C7.89062 12.1094 3.51562 8.90625 1.25 7.10938L0.703125 6.71875C0.234375 6.40625 0 5.85938 0 5.23438V3.75C0 2.73438 0.3125 1.875 1.09375 1.09375C1.79688 0.390625 2.65625 0 3.75 0H36.25C37.2656 0 38.125 0.390625 38.9062 1.09375C39.6094 1.875 40 2.73438 40 3.75V5.23438C40 5.85938 39.7656 6.40625 39.2969 6.71875L38.9062 7.03125C36.6406 8.82812 32.2656 12.1094 25.7031 16.7969L24.9219 17.3438C23.8281 18.2031 23.0469 18.75 22.5 19.0625C21.4844 19.6875 20.625 20 20 20Z" fill="black"/>
</svg>
