<svg width="16" height="14" viewBox="0 0 16 14" fill="none" xmlns="http://www.w3.org/2000/svg">
<path d="M4 2.625C4 2.78125 4.03125 2.90625 4.125 3C4.21875 3.09375 4.34375 3.125 4.5 3.125H15.5C15.625 3.125 15.75 3.09375 15.8438 3C15.9375 2.90625 16 2.78125 16 2.625V1.375C16 1.25 15.9375 1.125 15.8438 1.03125C15.75 0.9375 15.625 0.875 15.5 0.875H4.5C4.34375 0.875 4.21875 0.9375 4.125 1.03125C4.03125 1.125 4 1.25 4 1.375V2.625ZM4.5 8.125C4.34375 8.125 4.21875 8.09375 4.125 8C4.03125 7.90625 4 7.78125 4 7.625V6.375C4 6.25 4.03125 6.125 4.125 6.03125C4.21875 5.9375 4.34375 5.875 4.5 5.875H15.5C15.625 5.875 15.75 5.9375 15.8438 6.03125C15.9375 6.125 16 6.25 16 6.375V7.625C16 7.78125 15.9375 7.90625 15.8438 8C15.75 8.09375 15.625 8.125 15.5 8.125H4.5ZM4.5 13.125C4.34375 13.125 4.21875 13.0938 4.125 13C4.03125 12.9062 4 12.7812 4 12.625V11.375C4 11.25 4.03125 11.125 4.125 11.0312C4.21875 10.9375 4.34375 10.875 4.5 10.875H15.5C15.625 10.875 15.75 10.9375 15.8438 11.0312C15.9375 11.125 16 11.25 16 11.375V12.625C16 12.7812 15.9375 12.9062 15.8438 13C15.75 13.0938 15.625 13.125 15.5 13.125H4.5ZM0.5 3.5C0.34375 3.5 0.21875 3.46875 0.125 3.375C0.03125 3.28125 0 3.15625 0 3V1C0 0.875 0.03125 0.75 0.125 0.65625C0.21875 0.5625 0.34375 0.5 0.5 0.5H2.5C2.625 0.5 2.75 0.5625 2.84375 0.65625C2.9375 0.75 3 0.875 3 1V3C3 3.15625 2.9375 3.28125 2.84375 3.375C2.75 3.46875 2.625 3.5 2.5 3.5H0.5ZM0.5 8.5C0.34375 8.5 0.21875 8.46875 0.125 8.375C0.03125 8.28125 0 8.15625 0 8V6C0 5.875 0.03125 5.75 0.125 5.65625C0.21875 5.5625 0.34375 5.5 0.5 5.5H2.5C2.625 5.5 2.75 5.5625 2.84375 5.65625C2.9375 5.75 3 5.875 3 6V8C3 8.15625 2.9375 8.28125 2.84375 8.375C2.75 8.46875 2.625 8.5 2.5 8.5H0.5ZM0.5 13.5C0.34375 13.5 0.21875 13.4688 0.125 13.375C0.03125 13.2812 0 13.1562 0 13V11C0 10.875 0.03125 10.75 0.125 10.6562C0.21875 10.5625 0.34375 10.5 0.5 10.5H2.5C2.625 10.5 2.75 10.5625 2.84375 10.6562C2.9375 10.75 3 10.875 3 11V13C3 13.1562 2.9375 13.2812 2.84375 13.375C2.75 13.4688 2.625 13.5 2.5 13.5H0.5Z" fill="black"/>
</svg>
