<svg width="16" height="16" viewBox="0 0 16 16" fill="none" xmlns="http://www.w3.org/2000/svg">
<path opacity="0.2" d="M6.71484 1.60547C6.50391 1.78125 6.43359 1.99219 6.43359 2.20312C6.43359 2.44922 6.53906 2.66016 6.71484 2.80078L10.9336 6.84375H0.84375C0.597656 6.84375 0.386719 6.94922 0.246094 7.08984C0.0703125 7.26562 0 7.47656 0 7.6875V8.8125C0 9.05859 0.0703125 9.26953 0.246094 9.41016C0.386719 9.58594 0.597656 9.65625 0.84375 9.65625H10.9336L6.71484 13.6992C6.53906 13.875 6.43359 14.0859 6.43359 14.2969C6.43359 14.543 6.50391 14.7539 6.71484 14.8945L7.48828 15.668C7.62891 15.8438 7.83984 15.9141 8.08594 15.9141C8.29688 15.9141 8.50781 15.8438 8.68359 15.668L15.5039 8.84766C15.6445 8.70703 15.75 8.49609 15.75 8.25C15.75 8.03906 15.6445 7.82812 15.5039 7.65234L8.68359 0.832031C8.50781 0.691406 8.29688 0.585938 8.08594 0.585938C7.83984 0.585938 7.62891 0.691406 7.48828 0.832031L6.71484 1.60547Z" fill="black"/>
</svg>
