<svg width="5" height="7" viewBox="0 0 5 7" fill="none" xmlns="http://www.w3.org/2000/svg">
<path d="M4.375 3.58203C4.45312 3.50391 4.51172 3.38672 4.51172 3.25C4.51172 3.13281 4.45312 3.01562 4.375 2.91797L1.71875 0.261719C1.62109 0.183594 1.50391 0.125 1.38672 0.125C1.25 0.125 1.13281 0.183594 1.05469 0.261719L0.625 0.710938C0.527344 0.808594 0.488281 0.925781 0.488281 1.04297C0.488281 1.17969 0.527344 1.29688 0.625 1.375L2.5 3.25L0.625 5.125C0.527344 5.22266 0.488281 5.33984 0.488281 5.45703C0.488281 5.59375 0.527344 5.71094 0.625 5.78906L1.05469 6.23828C1.13281 6.33594 1.25 6.375 1.38672 6.375C1.50391 6.375 1.62109 6.33594 1.71875 6.23828L4.375 3.58203Z" fill="black"/>
</svg>
