<svg width="19" height="19" viewBox="0 0 19 19" fill="none" xmlns="http://www.w3.org/2000/svg">
<path d="M12.8571 8.14286C12.8571 10.8996 10.6138 13.1429 7.85714 13.1429C5.10045 13.1429 2.85714 10.8996 2.85714 8.14286C2.85714 5.38616 5.10045 3.14286 7.85714 3.14286C10.6138 3.14286 12.8571 5.38616 12.8571 8.14286ZM18.5714 17.4286C18.5714 17.0491 18.4152 16.6808 18.1585 16.4241L14.3304 12.596C15.2344 11.2902 15.7143 9.72768 15.7143 8.14286C15.7143 3.80134 12.1987 0.285713 7.85714 0.285713C3.51563 0.285713 0 3.80134 0 8.14286C0 12.4844 3.51563 16 7.85714 16C9.44196 16 11.0045 15.5201 12.3103 14.6161L16.1384 18.433C16.3951 18.7009 16.7634 18.8571 17.1429 18.8571C17.9241 18.8571 18.5714 18.2098 18.5714 17.4286Z" fill="black"/>
</svg>
