<svg width="30" height="24" viewBox="0 0 30 24" fill="none" xmlns="http://www.w3.org/2000/svg">
<path d="M29.25 16.5C29.4375 16.5 29.625 16.5938 29.7656 16.7344C29.9062 16.875 30 17.0625 30 17.25V18.75C30 18.9844 29.9062 19.1719 29.7656 19.3125C29.625 19.4531 29.4375 19.5 29.25 19.5H27C27 20.7656 26.5312 21.8438 25.6875 22.6875C24.7969 23.5781 23.7188 24 22.5 24C21.2344 24 20.1562 23.5781 19.3125 22.6875C18.4219 21.8438 18 20.7656 18 19.5H12C12 20.7656 11.5312 21.8438 10.6875 22.6875C9.79688 23.5781 8.71875 24 7.5 24C6.23438 24 5.15625 23.5781 4.3125 22.6875C3.42188 21.8438 3 20.7656 3 19.5H2.25C1.59375 19.5 1.07812 19.3125 0.65625 18.8438C0.1875 18.4219 0 17.9062 0 17.25V2.25C0 1.64062 0.1875 1.125 0.65625 0.65625C1.07812 0.234375 1.59375 0 2.25 0H17.25C17.8594 0 18.375 0.234375 18.8438 0.65625C19.2656 1.125 19.5 1.64062 19.5 2.25V4.5H21.5625C22.1719 4.5 22.6875 4.73438 23.1562 5.15625L27.8438 9.84375C28.2656 10.3125 28.5 10.8281 28.5 11.4375V16.5H29.25ZM7.5 21.75C8.10938 21.75 8.625 21.5625 9.09375 21.0938C9.51562 20.6719 9.75 20.1562 9.75 19.5C9.75 18.8906 9.51562 18.375 9.09375 17.9062C8.625 17.4844 8.10938 17.25 7.5 17.25C6.84375 17.25 6.32812 17.4844 5.90625 17.9062C5.4375 18.375 5.25 18.8906 5.25 19.5C5.25 20.1562 5.4375 20.6719 5.90625 21.0938C6.32812 21.5625 6.84375 21.75 7.5 21.75ZM22.5 21.75C23.1094 21.75 23.625 21.5625 24.0938 21.0938C24.5156 20.6719 24.75 20.1562 24.75 19.5C24.75 18.8906 24.5156 18.375 24.0938 17.9062C23.625 17.4844 23.1094 17.25 22.5 17.25C21.8438 17.25 21.3281 17.4844 20.9062 17.9062C20.4375 18.375 20.25 18.8906 20.25 19.5C20.25 20.1562 20.4375 20.6719 20.9062 21.0938C21.3281 21.5625 21.8438 21.75 22.5 21.75ZM26.25 12V11.4375L21.5625 6.75H19.5V12H26.25Z" fill="black"/>
</svg>
