<svg width="20" height="21" viewBox="0 0 20 21" fill="none" xmlns="http://www.w3.org/2000/svg">
<path d="M9.6875 4.5625C10.7031 4.5625 11.6016 4.95312 12.3438 5.65625C13.0469 6.39844 13.4375 7.29688 13.4375 8.3125C13.4375 9.36719 13.0469 10.2656 12.3438 10.9688C11.6016 11.7109 10.7031 12.0625 9.6875 12.0625C8.63281 12.0625 7.73438 11.7109 7.03125 10.9688C6.28906 10.2656 5.9375 9.36719 5.9375 8.3125C5.9375 7.29688 6.28906 6.39844 7.03125 5.65625C7.73438 4.95312 8.63281 4.5625 9.6875 4.5625ZM9.6875 10.1875C10.1953 10.1875 10.625 10.0312 11.0156 9.64062C11.3672 9.28906 11.5625 8.85938 11.5625 8.3125C11.5625 7.80469 11.3672 7.375 11.0156 6.98438C10.625 6.63281 10.1953 6.4375 9.6875 6.4375C9.14062 6.4375 8.71094 6.63281 8.35938 6.98438C7.96875 7.375 7.8125 7.80469 7.8125 8.3125C7.8125 8.85938 7.96875 9.28906 8.35938 9.64062C8.71094 10.0312 9.14062 10.1875 9.6875 10.1875ZM9.6875 0.8125C11.4062 0.8125 13.0469 1.28125 14.5312 2.14062C16.0156 3 17.1875 4.17188 18.0469 5.65625C18.9062 7.14062 19.375 8.78125 19.375 10.5C19.375 12.2578 18.9062 13.8594 18.0469 15.3438C17.1875 16.8281 16.0156 18.0391 14.5312 18.8984C13.0469 19.7578 11.4062 20.1875 9.6875 20.1875C7.92969 20.1875 6.32812 19.7578 4.84375 18.8984C3.35938 18.0391 2.14844 16.8281 1.28906 15.3438C0.429688 13.8594 0 12.2578 0 10.5C0 8.78125 0.429688 7.14062 1.28906 5.65625C2.14844 4.17188 3.35938 3 4.84375 2.14062C6.32812 1.28125 7.92969 0.8125 9.6875 0.8125ZM9.6875 18.3125C10.625 18.3125 11.5625 18.1562 12.4219 17.8438C13.2812 17.5312 14.0625 17.0625 14.7656 16.4375C14.4531 15.9688 14.0625 15.6172 13.5938 15.3438C13.125 15.0703 12.6172 14.9141 12.0703 14.875C11.25 15.1484 10.4688 15.2656 9.6875 15.2656C8.90625 15.2656 8.125 15.1484 7.34375 14.875C6.75781 14.9141 6.21094 15.0703 5.74219 15.3438C5.27344 15.6172 4.88281 15.9688 4.60938 16.4375C5.3125 17.0625 6.09375 17.5312 6.95312 17.8438C7.8125 18.1562 8.71094 18.3125 9.6875 18.3125ZM16.0547 15.0312C16.9922 13.7031 17.5 12.1797 17.5 10.5C17.5 9.09375 17.1484 7.80469 16.4453 6.59375C15.7422 5.42188 14.7656 4.44531 13.5938 3.74219C12.3828 3.03906 11.0938 2.6875 9.6875 2.6875C8.28125 2.6875 6.95312 3.03906 5.78125 3.74219C4.57031 4.44531 3.63281 5.42188 2.92969 6.59375C2.22656 7.80469 1.875 9.09375 1.875 10.5C1.875 12.1797 2.34375 13.7031 3.32031 15.0312C3.78906 14.4062 4.41406 13.9375 5.11719 13.5469C5.82031 13.1953 6.60156 13 7.42188 13C7.5 13 7.69531 13.0391 7.96875 13.1172C8.59375 13.3125 9.14062 13.3906 9.6875 13.3906C10.1953 13.3906 10.7812 13.3125 11.4062 13.1172C11.6406 13.0391 11.8359 13 11.9531 13C12.7344 13 13.5156 13.1953 14.2188 13.5469C14.9219 13.9375 15.5469 14.4062 16.0547 15.0312Z" fill="black"/>
</svg>
