<svg width="16" height="17" viewBox="0 0 16 17" fill="none" xmlns="http://www.w3.org/2000/svg">
<path d="M13.3945 2.66016C14.1328 3.43359 14.6953 4.27734 15.1172 5.22656C15.5391 6.17578 15.75 7.16016 15.75 8.17969C15.75 9.58594 15.3633 10.8867 14.6602 12.082C13.957 13.2773 12.9727 14.2266 11.7773 14.9297C10.582 15.6328 9.28125 15.9844 7.875 15.9844C6.53906 15.9844 5.27344 15.668 4.14844 15.0352L0 16.125L1.125 12.082C0.421875 10.8867 0.0703125 9.58594 0.0703125 8.17969C0.0703125 6.77344 0.421875 5.47266 1.125 4.27734C1.82812 3.08203 2.77734 2.13281 3.97266 1.42969C5.16797 0.726562 6.46875 0.375 7.875 0.375C8.89453 0.375 9.87891 0.585938 10.8281 0.972656C11.7773 1.39453 12.6211 1.95703 13.3945 2.66016ZM7.875 14.6836C9.03516 14.6836 10.125 14.4023 11.1445 13.8047C12.1289 13.2422 12.9375 12.4336 13.5352 11.4492C14.1328 10.4648 14.4492 9.375 14.4492 8.17969C14.4492 7.33594 14.2734 6.52734 13.9219 5.71875C13.5703 4.94531 13.0781 4.24219 12.4453 3.60938C11.8125 2.97656 11.1094 2.51953 10.3359 2.16797C9.5625 1.85156 8.71875 1.67578 7.875 1.67578C6.67969 1.67578 5.58984 1.99219 4.60547 2.55469C3.62109 3.15234 2.8125 3.96094 2.25 4.94531C1.65234 5.92969 1.37109 7.01953 1.37109 8.17969C1.37109 9.44531 1.6875 10.5703 2.39062 11.625L2.53125 11.8711L1.86328 14.2617L4.32422 13.6289L4.57031 13.7695C5.55469 14.4023 6.67969 14.6836 7.875 14.6836ZM11.4258 9.79688L11.5312 9.86719C11.6719 9.9375 11.7773 10.0078 11.8125 10.043C11.8125 10.1133 11.8125 10.2188 11.8125 10.3945C11.8125 10.6055 11.7422 10.7812 11.6719 10.9922C11.6016 11.2031 11.3906 11.3789 11.1094 11.5898C10.8281 11.8008 10.582 11.9062 10.3711 11.9062C10.0195 11.9766 9.70312 11.9766 9.42188 11.9062C9.07031 11.8359 8.57812 11.6953 8.01562 11.4141C6.82031 10.9219 5.73047 9.9375 4.74609 8.53125L4.67578 8.46094C4.14844 7.75781 3.90234 7.08984 3.90234 6.45703C3.90234 5.85938 4.11328 5.33203 4.53516 4.875L4.57031 4.83984C4.71094 4.69922 4.88672 4.59375 5.09766 4.59375H5.51953C5.58984 4.59375 5.66016 4.62891 5.73047 4.66406C5.80078 4.69922 5.83594 4.76953 5.90625 4.91016L6.50391 6.35156C6.57422 6.49219 6.57422 6.63281 6.53906 6.70312C6.39844 6.94922 6.25781 7.16016 6.08203 7.33594C5.97656 7.44141 5.90625 7.51172 5.90625 7.58203C5.87109 7.65234 5.90625 7.6875 5.97656 7.75781C6.29297 8.39062 6.67969 8.84766 7.13672 9.19922C7.45312 9.48047 7.94531 9.76172 8.61328 10.0781C8.78906 10.1836 8.92969 10.1836 9.03516 10.043C9.31641 9.69141 9.52734 9.44531 9.66797 9.26953C9.70312 9.19922 9.77344 9.12891 9.84375 9.12891C9.91406 9.12891 9.98438 9.16406 10.0898 9.16406C10.2656 9.23438 10.7227 9.44531 11.4258 9.79688Z" fill="#5DA822"/>
</svg>
