<svg width="16" height="13"><path d="M0 11.313V6.5h15.75v4.813c0 .382-.137.683-.383.93a1.239 1.239 0 01-.93.382H1.313c-.383 0-.684-.11-.93-.383-.274-.246-.383-.547-.383-.93zm5.25-1.86v1.094c0 .11.027.191.082.246.055.055.137.082.246.082h3.719a.31.31 0 00.219-.082.347.347 0 00.109-.246V9.453c0-.082-.055-.164-.11-.219-.054-.054-.136-.109-.218-.109H5.578a.347.347 0 00-.246.11.31.31 0 00-.082.218zm-3.5 0v1.094c0 .11.027.191.082.246.055.055.137.082.246.082h1.969a.31.31 0 00.219-.082.347.347 0 00.109-.246V9.453c0-.082-.055-.164-.11-.219-.054-.054-.136-.109-.218-.109H2.078a.347.347 0 00-.246.11.31.31 0 00-.082.218zm14-7.765c0-.356-.137-.657-.383-.93-.273-.246-.574-.383-.93-.383H1.313a1.26 1.26 0 00-.931.383 1.239 1.239 0 00-.383.93V3h15.75V1.687z"/></svg>