<svg width="18" height="21"><path d="M13.75 6.75h3.75v10.625c0 .86-.313 1.602-.938 2.227-.625.625-1.328.898-2.187.898H3.125c-.86 0-1.602-.273-2.227-.898C.273 18.977 0 18.234 0 17.375V6.75h3.75V5.5c0-.898.195-1.719.664-2.5.43-.781 1.016-1.367 1.797-1.836A5.128 5.128 0 018.75.5c.898 0 1.719.234 2.5.664A5.167 5.167 0 0113.086 3c.43.781.664 1.602.664 2.5v1.25zM6.25 5.5v1.25h5V5.5c0-.664-.273-1.25-.742-1.758C10 3.273 9.414 3 8.75 3c-.703 0-1.29.273-1.758.742-.508.508-.742 1.094-.742 1.758zm6.25 4.688a.915.915 0 00.664-.274.943.943 0 00.274-.664c0-.234-.118-.469-.274-.664-.195-.156-.43-.274-.664-.274a.943.943 0 00-.664.274.915.915 0 00-.274.664c0 .273.079.508.274.664.156.195.39.274.664.274zm-7.5 0a.915.915 0 00.664-.274.942.942 0 00.274-.664c0-.234-.118-.469-.274-.664-.195-.156-.43-.274-.664-.274a.942.942 0 00-.664.274.915.915 0 00-.274.664c0 .273.079.508.274.664.156.195.39.274.664.274z"/></svg>