<svg width="28" height="23"><path d="M6.5 5.214c0 1.03-.827 1.857-1.857 1.857a1.851 1.851 0 01-1.857-1.857c0-1.03.827-1.857 1.857-1.857S6.5 4.184 6.5 5.214zm15.481 8.357a1.93 1.93 0 00-.537-1.32L11.07 1.891c-.74-.74-2.147-1.32-3.177-1.32H1.857A1.87 1.87 0 000 2.43v6.035c0 1.03.58 2.438 1.32 3.163l10.374 10.389c.334.333.813.537 1.306.537a1.93 1.93 0 001.32-.537l7.124-7.139c.334-.334.537-.812.537-1.306zm5.571 0a1.93 1.93 0 00-.536-1.32L16.642 1.891c-.74-.74-2.148-1.32-3.178-1.32h-3.25c1.03 0 2.438.58 3.178 1.32l10.374 10.36c.333.348.537.827.537 1.32 0 .494-.204.973-.537 1.306l-6.82 6.82c.494.507.871.855 1.625.855a1.93 1.93 0 001.32-.536l7.125-7.139c.333-.334.537-.812.537-1.306z"/></svg>