<svg width="14" height="10"><path d="M3 6c.25 0 .5.125.688.313C3.874 6.5 4 6.75 4 7v2c0 .281-.125.531-.313.719A.97.97 0 013 10H1a.99.99 0 01-.719-.281A.99.99 0 010 9V7a1.017 1.017 0 011-1h2zm5 0c.25 0 .5.125.688.313C8.874 6.5 9 6.75 9 7v2c0 .281-.125.531-.313.719A.97.97 0 018 10H6a.99.99 0 01-.719-.281A.99.99 0 015 9V7a1.017 1.017 0 011-1h2zm5 0c.25 0 .5.125.688.313.187.187.312.437.312.687v2c0 .281-.125.531-.313.719A.97.97 0 0113 10h-2a.99.99 0 01-.719-.281A.99.99 0 0110 9V7c0-.25.094-.5.281-.688C10.47 6.125 10.72 6 11 6h2zM3 0c.25 0 .5.125.688.313C3.874.5 4 .75 4 1v2c0 .281-.125.531-.313.719A.97.97 0 013 4H1a.99.99 0 01-.719-.281A.99.99 0 010 3V1a1.017 1.017 0 011-1h2zm5 0c.25 0 .5.125.688.313C8.874.5 9 .75 9 1v2c0 .281-.125.531-.313.719A.97.97 0 018 4H6a.99.99 0 01-.719-.281A.99.99 0 015 3V1a1.017 1.017 0 011-1h2zm5 0c.25 0 .5.125.688.313C13.874.5 14 .75 14 1v2c0 .281-.125.531-.313.719A.97.97 0 0113 4h-2a.99.99 0 01-.719-.281A.99.99 0 0110 3V1c0-.25.094-.5.281-.688C10.47.126 10.72 0 11 0h2z"/></svg>