<svg width="26" height="22"><path d="M22.469 2a7.658 7.658 0 012.297 3.469 7.264 7.264 0 010 3.75c-.375 1.265-.938 2.344-1.782 3.187l-8.203 8.344A2.448 2.448 0 0113 21.5c-.703 0-1.313-.234-1.781-.75l-8.203-8.344c-.844-.844-1.454-1.922-1.782-3.187-.375-1.266-.328-2.531.047-3.75C1.656 4.156 2.406 2.984 3.531 2 4.375 1.25 5.406.781 6.578.594A7.114 7.114 0 0110 .875a7.629 7.629 0 013 1.828A7.46 7.46 0 0115.953.875a7.258 7.258 0 013.469-.281A6.279 6.279 0 0122.469 2zm-1.078 8.813c.562-.563.937-1.313 1.172-2.157a4.814 4.814 0 000-2.578 5.149 5.149 0 00-1.547-2.344c-.938-.75-2.016-1.078-3.235-.984a4.75 4.75 0 00-3.14 1.5L13 5.89l-1.64-1.64c-.891-.89-1.97-1.406-3.188-1.5-1.219-.094-2.297.234-3.188.984-.796.657-1.312 1.454-1.546 2.344a4.396 4.396 0 00-.047 2.578c.234.844.656 1.594 1.218 2.156l8.25 8.344c.094.14.188.14.282 0l8.25-8.343z"/></svg>