<svg width="16" height="17"><path d="M7.875 4.207c.703 0 1.371.211 2.004.563a3.73 3.73 0 011.476 1.476c.352.633.563 1.3.563 2.004 0 .738-.211 1.406-.563 2.04a3.729 3.729 0 01-1.476 1.476 4.07 4.07 0 01-2.004.527 4.1 4.1 0 01-2.04-.527 3.728 3.728 0 01-1.476-1.477 4.1 4.1 0 01-.527-2.039c0-.703.176-1.371.527-2.004A3.729 3.729 0 015.836 4.77c.633-.352 1.3-.563 2.039-.563zm0 6.68a2.55 2.55 0 001.863-.774 2.574 2.574 0 00.774-1.863c0-.703-.282-1.336-.774-1.863-.527-.492-1.16-.774-1.863-.774-.738 0-1.371.282-1.863.774a2.55 2.55 0 00-.774 1.863c0 .738.246 1.371.774 1.863.492.528 1.125.774 1.863.774zm5.168-6.856c0-.246-.105-.457-.281-.668-.211-.175-.422-.281-.668-.281a.9.9 0 00-.668.281.878.878 0 00-.281.668c0 .282.07.492.28.668.177.211.387.281.669.281.246 0 .457-.07.633-.28.175-.177.28-.388.316-.669zm2.672.95c0 .667.035 1.757.035 3.269a65.04 65.04 0 01-.07 3.305 7.656 7.656 0 01-.282 1.722 4.165 4.165 0 01-.984 1.547c-.422.422-.95.739-1.512.95-.492.175-1.09.28-1.757.316-.668.035-1.758.035-3.27.035-1.547 0-2.637 0-3.305-.035-.668-.035-1.23-.14-1.722-.352a3.628 3.628 0 01-1.547-.914 4.09 4.09 0 01-.95-1.547c-.175-.492-.28-1.054-.316-1.722C0 10.887 0 9.797 0 8.25c0-1.512 0-2.602.035-3.27.035-.668.14-1.265.317-1.757.21-.563.527-1.09.949-1.512A4.15 4.15 0 012.848.727 7.66 7.66 0 014.57.445C5.238.41 6.328.375 7.875.375c1.512 0 2.602.035 3.27.07.668.035 1.265.14 1.757.282.563.21 1.09.562 1.512.984.422.422.774.95.984 1.512.141.492.247 1.09.317 1.757zm-1.688 7.91c.141-.387.211-1.02.282-1.899 0-.492.035-1.23.035-2.18V7.688c0-.95-.035-1.688-.035-2.18-.07-.88-.141-1.512-.282-1.899a2.665 2.665 0 00-1.511-1.511c-.387-.141-1.02-.211-1.899-.282-.527 0-1.265-.035-2.18-.035H7.313c-.95 0-1.688.035-2.18.035-.88.07-1.512.141-1.899.282-.738.28-1.23.808-1.511 1.511-.141.387-.246 1.02-.282 1.899-.035.527-.035 1.265-.035 2.18v1.125c0 .949 0 1.687.035 2.18.036.878.141 1.51.282 1.898.28.738.808 1.23 1.511 1.511.387.141 1.02.246 1.899.282.492.035 1.23.035 2.18.035h1.125c.949 0 1.687 0 2.18-.035.878-.036 1.51-.141 1.898-.282a2.665 2.665 0 001.511-1.511z"/></svg>