<svg width="12" height="11"><path opacity=".3" d="M3 2.219c0 .117.023.21.094.281.07.07.164.094.281.094h8.25a.352.352 0 00.258-.094.388.388 0 00.117-.281V1.28a.376.376 0 00-.117-.258.376.376 0 00-.258-.117h-8.25a.388.388 0 00-.281.117A.352.352 0 003 1.28v.938zm.375 4.125c-.117 0-.21-.024-.281-.094C3.024 6.18 3 6.086 3 5.969V5.03c0-.093.023-.187.094-.258a.388.388 0 01.281-.117h8.25c.094 0 .188.047.258.117s.117.165.117.258v.938a.39.39 0 01-.117.281.352.352 0 01-.258.094h-8.25zm0 3.75c-.117 0-.21-.024-.281-.094C3.024 9.93 3 9.836 3 9.719V8.78a.35.35 0 01.094-.258.388.388 0 01.281-.117h8.25c.094 0 .188.047.258.117s.117.165.117.258v.938a.39.39 0 01-.117.281.352.352 0 01-.258.094h-8.25zm-3-7.219c-.117 0-.21-.023-.281-.094C.024 2.711 0 2.617 0 2.5V1A.35.35 0 01.094.742.388.388 0 01.375.625h1.5c.094 0 .188.047.258.117S2.25.906 2.25 1v1.5a.39.39 0 01-.117.281.352.352 0 01-.258.094h-1.5zm0 3.75c-.117 0-.21-.023-.281-.094C.024 6.461 0 6.367 0 6.25v-1.5a.35.35 0 01.094-.258.388.388 0 01.281-.117h1.5c.094 0 .188.047.258.117s.117.164.117.258v1.5a.39.39 0 01-.117.281.352.352 0 01-.258.094h-1.5zm0 3.75c-.117 0-.21-.023-.281-.094C.024 10.211 0 10.117 0 10V8.5a.35.35 0 01.094-.258.388.388 0 01.281-.117h1.5c.094 0 .188.047.258.117s.117.164.117.258V10a.39.39 0 01-.117.281.352.352 0 01-.258.094h-1.5z"/></svg>