<svg width="40" height="30"><path d="M39.219 9.922c-1.875 1.484-5.938 4.453-12.032 8.828l-.78.625c-1.25.938-2.188 1.64-2.97 2.031-1.25.782-2.421 1.094-3.437 1.094-1.094 0-2.188-.313-3.438-1.016-.78-.39-1.718-1.093-2.968-2.03l-.781-.704C6.484 14.219 2.5 11.25.78 9.922a.667.667 0 00-.547 0 .43.43 0 00-.234.39V26.25c0 1.094.313 1.953 1.094 2.656C1.797 29.688 2.656 30 3.75 30h32.5c1.016 0 1.875-.313 2.656-1.094C39.61 28.203 40 27.344 40 26.25V10.312c0-.156-.156-.312-.313-.468-.156-.078-.312-.078-.468.078zM20 20c-.703 0-1.563-.313-2.5-.938-.625-.312-1.406-.859-2.422-1.718l-.781-.547C7.89 12.109 3.516 8.907 1.25 7.109l-.547-.39C.234 6.406 0 5.859 0 5.234V3.75c0-1.016.313-1.875 1.094-2.656C1.797.39 2.656 0 3.75 0h32.5c1.016 0 1.875.39 2.656 1.094C39.61 1.875 40 2.734 40 3.75v1.484c0 .625-.234 1.172-.703 1.485l-.39.312c-2.266 1.797-6.641 5.078-13.204 9.766l-.781.547c-1.094.86-1.875 1.406-2.422 1.718-1.016.625-1.875.938-2.5.938z"/></svg>