<svg width="16" height="14"><path d="M4 2.625c0 .156.031.281.125.375.094.094.219.125.375.125h11A.47.47 0 0015.844 3 .518.518 0 0016 2.625v-1.25a.502.502 0 00-.156-.344.502.502 0 00-.344-.156h-11a.518.518 0 00-.375.156.47.47 0 00-.125.344v1.25zm.5 5.5c-.156 0-.281-.031-.375-.125C4.031 7.906 4 7.781 4 7.625v-1.25a.47.47 0 01.125-.344.518.518 0 01.375-.156h11c.125 0 .25.063.344.156a.502.502 0 01.156.344v1.25a.518.518 0 01-.156.375.47.47 0 01-.344.125h-11zm0 5c-.156 0-.281-.031-.375-.125-.094-.094-.125-.219-.125-.375v-1.25a.47.47 0 01.125-.344.518.518 0 01.375-.156h11c.125 0 .25.063.344.156a.502.502 0 01.156.344v1.25a.518.518 0 01-.156.375.47.47 0 01-.344.125h-11zM.5 3.5c-.156 0-.281-.031-.375-.125C.031 3.281 0 3.156 0 3V1A.47.47 0 01.125.656.518.518 0 01.5.5h2c.125 0 .25.063.344.156A.502.502 0 013 1v2a.518.518 0 01-.156.375.47.47 0 01-.344.125h-2zm0 5c-.156 0-.281-.031-.375-.125C.031 8.281 0 8.156 0 8V6a.47.47 0 01.125-.344A.518.518 0 01.5 5.5h2c.125 0 .25.063.344.156A.502.502 0 013 6v2a.518.518 0 01-.156.375.47.47 0 01-.344.125h-2zm0 5c-.156 0-.281-.031-.375-.125C.031 13.281 0 13.156 0 13v-2a.47.47 0 01.125-.344A.518.518 0 01.5 10.5h2c.125 0 .25.063.344.156A.502.502 0 013 11v2a.518.518 0 01-.156.375.47.47 0 01-.344.125h-2z"/></svg>