<svg width="16" height="18"><path opacity=".3" d="M5.714 14.214a.352.352 0 01-.357.357h-.714a.353.353 0 01-.357-.357V6.357c0-.2.156-.357.357-.357h.714c.201 0 .357.156.357.357v7.857zm2.857 0a.352.352 0 01-.357.357H7.5a.353.353 0 01-.357-.357V6.357c0-.2.156-.357.357-.357h.714c.201 0 .357.156.357.357v7.857zm2.858 0a.353.353 0 01-.358.357h-.714a.352.352 0 01-.357-.357V6.357c0-.2.156-.357.357-.357h.714c.201 0 .358.156.358.357v7.857zM5.357 3.143l.547-1.306a.376.376 0 01.19-.123h3.538a.43.43 0 01.19.123l.535 1.306h-5zm10.357.357c0-.2-.156-.357-.357-.357H11.91l-.782-1.864c-.223-.547-.893-.993-1.484-.993H6.07c-.591 0-1.26.446-1.484.993l-.781 1.864H.357c-.2 0-.357.156-.357.357v.714c0 .201.156.357.357.357H1.43v10.625c0 1.228.803 2.233 1.785 2.233H12.5c.982 0 1.786-1.05 1.786-2.277V4.572h1.071a.353.353 0 00.357-.358V3.5z"/></svg>