<svg width="30" height="24"><path d="M29.25 16.5c.188 0 .375.094.516.234.14.141.234.328.234.516v1.5a.776.776 0 01-.234.563c-.141.14-.328.187-.516.187H27c0 1.266-.469 2.344-1.313 3.188-.89.89-1.968 1.312-3.187 1.312-1.266 0-2.344-.422-3.188-1.313-.89-.842-1.312-1.92-1.312-3.187h-6c0 1.266-.469 2.344-1.313 3.188C9.797 23.578 8.72 24 7.5 24c-1.266 0-2.344-.422-3.188-1.313C3.422 21.845 3 20.767 3 19.5h-.75c-.656 0-1.172-.188-1.594-.656C.187 18.422 0 17.906 0 17.25v-15C0 1.64.188 1.125.656.656A2.155 2.155 0 012.25 0h15c.61 0 1.125.234 1.594.656.422.469.656.985.656 1.594V4.5h2.063c.609 0 1.125.234 1.593.656l4.688 4.688c.422.469.656.984.656 1.594V16.5h.75zM7.5 21.75c.61 0 1.125-.188 1.594-.656.422-.422.656-.938.656-1.594 0-.61-.234-1.125-.656-1.594-.469-.422-.985-.656-1.594-.656-.656 0-1.172.234-1.594.656-.468.469-.656.985-.656 1.594 0 .656.188 1.172.656 1.594.422.468.938.656 1.594.656zm15 0c.61 0 1.125-.188 1.594-.656.422-.422.656-.938.656-1.594 0-.61-.234-1.125-.656-1.594-.469-.422-.985-.656-1.594-.656-.656 0-1.172.234-1.594.656-.468.469-.656.985-.656 1.594 0 .656.188 1.172.656 1.594.422.468.938.656 1.594.656zM26.25 12v-.563L21.562 6.75H19.5V12h6.75z"/></svg>