<svg width="20" height="21"><path d="M9.688 4.563c1.015 0 1.914.39 2.656 1.093.703.742 1.094 1.64 1.094 2.657a3.656 3.656 0 01-1.094 2.656c-.742.742-1.64 1.094-2.656 1.094-1.055 0-1.954-.352-2.657-1.094-.742-.703-1.093-1.602-1.093-2.656 0-1.016.351-1.915 1.093-2.657a3.655 3.655 0 012.657-1.093zm0 5.625a1.77 1.77 0 001.328-.547 1.8 1.8 0 00.546-1.329c0-.507-.195-.937-.546-1.328-.391-.351-.82-.546-1.329-.546-.546 0-.976.195-1.328.546-.39.391-.546.82-.546 1.329 0 .546.156.976.546 1.328.352.39.782.546 1.329.546zm0-9.376c1.718 0 3.359.47 4.843 1.329a9.488 9.488 0 013.516 3.515c.86 1.485 1.328 3.125 1.328 4.844 0 1.758-.469 3.36-1.328 4.844-.86 1.484-2.031 2.695-3.516 3.554a9.568 9.568 0 01-4.844 1.29 9.459 9.459 0 01-4.843-1.29 9.696 9.696 0 01-3.555-3.554A9.471 9.471 0 010 10.5c0-1.719.43-3.36 1.29-4.844C2.147 4.172 3.36 3 4.843 2.141 6.328 1.28 7.93.812 9.687.812zm0 17.5a8.05 8.05 0 002.734-.468 7.216 7.216 0 002.344-1.407 3.481 3.481 0 00-1.172-1.093 3.475 3.475 0 00-1.524-.469 7.42 7.42 0 01-2.383.39 7.027 7.027 0 01-2.343-.39 3.646 3.646 0 00-1.602.469c-.469.273-.86.625-1.133 1.094a7.215 7.215 0 002.344 1.406 7.9 7.9 0 002.734.468zm6.367-3.28A7.727 7.727 0 0017.5 10.5a7.615 7.615 0 00-1.055-3.906 8.302 8.302 0 00-2.851-2.852 7.615 7.615 0 00-3.906-1.054c-1.407 0-2.735.351-3.907 1.054-1.21.703-2.148 1.68-2.851 2.852A7.615 7.615 0 001.875 10.5c0 1.68.469 3.203 1.445 4.531.47-.625 1.094-1.094 1.797-1.484A5.135 5.135 0 017.422 13c.078 0 .273.04.547.117a5.612 5.612 0 001.718.274 5.82 5.82 0 001.72-.274c.234-.078.429-.117.546-.117.781 0 1.563.195 2.266.547.703.39 1.328.86 1.836 1.484z"/></svg>