<svg width="16" height="17"><path d="M13.395 2.66a8.897 8.897 0 011.722 2.567c.422.949.633 1.933.633 2.953 0 1.406-.387 2.707-1.09 3.902-.703 1.195-1.687 2.145-2.883 2.848a7.56 7.56 0 01-3.902 1.054c-1.336 0-2.602-.316-3.727-.949L0 16.125l1.125-4.043A7.56 7.56 0 01.07 8.18a7.56 7.56 0 011.055-3.903A7.897 7.897 0 013.973 1.43 7.56 7.56 0 017.875.375c1.02 0 2.004.21 2.953.598a9.55 9.55 0 012.567 1.687zm-5.52 12.024c1.16 0 2.25-.282 3.27-.88a6.672 6.672 0 002.39-2.355 6.194 6.194 0 00.914-3.27 6.08 6.08 0 00-.527-2.46 7.163 7.163 0 00-3.586-3.551 6.54 6.54 0 00-2.461-.492 6.5 6.5 0 00-3.27.879 6.672 6.672 0 00-2.355 2.39c-.598.985-.879 2.075-.879 3.235 0 1.265.317 2.39 1.02 3.445l.14.246-.668 2.39 2.461-.632.246.14c.985.633 2.11.915 3.305.915zm3.55-4.887l.106.07c.14.07.246.14.281.176v.352c0 .21-.07.386-.14.597-.07.211-.281.387-.563.598-.28.21-.527.316-.738.316-.351.07-.668.07-.95 0a5.639 5.639 0 01-1.405-.492c-1.196-.492-2.286-1.476-3.27-2.883l-.07-.07c-.528-.703-.774-1.371-.774-2.004 0-.598.211-1.125.633-1.582l.035-.035c.14-.14.317-.246.528-.246h.422c.07 0 .14.035.21.07.07.035.106.106.176.246l.598 1.442c.07.14.07.28.035.351-.14.246-.281.457-.457.633-.105.105-.176.176-.176.246-.035.07 0 .106.07.176.317.633.704 1.09 1.16 1.441.317.281.81.563 1.477.88.176.105.317.105.422-.036.281-.352.492-.598.633-.773.035-.07.105-.141.176-.141.07 0 .14.035.246.035.176.07.633.281 1.336.633z"/></svg>