<svg class="svg-sprites" id="skin-sprite" xmlns="http://www.w3.org/2000/svg" xmlns:xlink="http://www.w3.org/1999/xlink">
    <symbol viewBox="0 0 16 13" id="z-card"><path d="M0 11.313V6.5h15.75v4.813c0 .382-.137.683-.383.93a1.239 1.239 0 01-.93.382H1.313c-.383 0-.684-.11-.93-.383-.274-.246-.383-.547-.383-.93zm5.25-1.86v1.094c0 .11.027.191.082.246.055.055.137.082.246.082h3.719a.31.31 0 00.219-.082.347.347 0 00.109-.246V9.453c0-.082-.055-.164-.11-.219-.054-.054-.136-.109-.218-.109H5.578a.347.347 0 00-.246.11.31.31 0 00-.082.218zm-3.5 0v1.094c0 .11.027.191.082.246.055.055.137.082.246.082h1.969a.31.31 0 00.219-.082.347.347 0 00.109-.246V9.453c0-.082-.055-.164-.11-.219-.054-.054-.136-.109-.218-.109H2.078a.347.347 0 00-.246.11.31.31 0 00-.082.218zm14-7.765c0-.356-.137-.657-.383-.93-.273-.246-.574-.383-.93-.383H1.313a1.26 1.26 0 00-.931.383 1.239 1.239 0 00-.383.93V3h15.75V1.687z"/></symbol>
    <symbol viewBox="0 0 18 21" id="z-cart"><path d="M13.75 6.75h3.75v10.625c0 .86-.313 1.602-.938 2.227-.625.625-1.328.898-2.187.898H3.125c-.86 0-1.602-.273-2.227-.898C.273 18.977 0 18.234 0 17.375V6.75h3.75V5.5c0-.898.195-1.719.664-2.5.43-.781 1.016-1.367 1.797-1.836A5.128 5.128 0 018.75.5c.898 0 1.719.234 2.5.664A5.167 5.167 0 0113.086 3c.43.781.664 1.602.664 2.5v1.25zM6.25 5.5v1.25h5V5.5c0-.664-.273-1.25-.742-1.758C10 3.273 9.414 3 8.75 3c-.703 0-1.29.273-1.758.742-.508.508-.742 1.094-.742 1.758zm6.25 4.688a.915.915 0 00.664-.274.943.943 0 00.274-.664c0-.234-.118-.469-.274-.664-.195-.156-.43-.274-.664-.274a.943.943 0 00-.664.274.915.915 0 00-.274.664c0 .273.079.508.274.664.156.195.39.274.664.274zm-7.5 0a.915.915 0 00.664-.274.942.942 0 00.274-.664c0-.234-.118-.469-.274-.664-.195-.156-.43-.274-.664-.274a.942.942 0 00-.664.274.915.915 0 00-.274.664c0 .273.079.508.274.664.156.195.39.274.664.274z"/></symbol>
    <symbol viewBox="0 0 16 17" id="z-chat"><path d="M14 0c.531 0 1 .219 1.406.594C15.781 1 16 1.469 16 2v9c0 .563-.219 1.031-.594 1.406A1.915 1.915 0 0114 13H9.5l-3.906 2.938a.385.385 0 01-.407.03c-.125-.062-.187-.187-.187-.343V13H2c-.563 0-1.031-.188-1.406-.594C.188 12.031 0 11.562 0 11V2C0 1.469.188 1 .594.594A1.934 1.934 0 012 0h12z"/></symbol>
    <symbol viewBox="0 0 7 5" id="z-down"><path d="M2.793 4.125c.078.098.195.137.332.137.117 0 .234-.04.332-.137l2.656-2.656a.471.471 0 00.137-.332.554.554 0 00-.137-.332l-.449-.43a.554.554 0 00-.332-.137A.471.471 0 005 .375L3.125 2.25 1.25.375A.554.554 0 00.918.238a.471.471 0 00-.332.137l-.45.43A.457.457 0 000 1.137c0 .136.04.254.137.332l2.656 2.656z"/></symbol>
    <symbol viewBox="0 0 16 17" id="z-facebook"><path d="M15.75 1.254a.88.88 0 00-.281-.633c-.176-.14-.387-.246-.598-.246H.88a.872.872 0 00-.633.246.847.847 0 00-.246.633v13.992c0 .246.07.457.246.633.14.176.352.246.633.246h7.523v-6.117h-2.04V7.652h2.04V5.895c0-.985.28-1.758.843-2.32.563-.528 1.3-.81 2.215-.81.703 0 1.336.036 1.828.07V4.98h-1.266c-.457 0-.773.106-.949.317-.14.176-.21.457-.21.844v1.511h2.355l-.317 2.356h-2.039v6.117h4.008c.246 0 .457-.07.633-.246a1.01 1.01 0 00.246-.633V1.254z"/></symbol>
    <symbol viewBox="0 0 26 22" id="z-heart"><path d="M22.469 2a7.658 7.658 0 012.297 3.469 7.264 7.264 0 010 3.75c-.375 1.265-.938 2.344-1.782 3.187l-8.203 8.344A2.448 2.448 0 0113 21.5c-.703 0-1.313-.234-1.781-.75l-8.203-8.344c-.844-.844-1.454-1.922-1.782-3.187-.375-1.266-.328-2.531.047-3.75C1.656 4.156 2.406 2.984 3.531 2 4.375 1.25 5.406.781 6.578.594A7.114 7.114 0 0110 .875a7.629 7.629 0 013 1.828A7.46 7.46 0 0115.953.875a7.258 7.258 0 013.469-.281A6.279 6.279 0 0122.469 2zm-1.078 8.813c.562-.563.937-1.313 1.172-2.157a4.814 4.814 0 000-2.578 5.149 5.149 0 00-1.547-2.344c-.938-.75-2.016-1.078-3.235-.984a4.75 4.75 0 00-3.14 1.5L13 5.89l-1.64-1.64c-.891-.89-1.97-1.406-3.188-1.5-1.219-.094-2.297.234-3.188.984-.796.657-1.312 1.454-1.546 2.344a4.396 4.396 0 00-.047 2.578c.234.844.656 1.594 1.218 2.156l8.25 8.344c.094.14.188.14.282 0l8.25-8.343z"/></symbol>
    <symbol viewBox="0 0 16 17" id="z-instagram"><path d="M7.875 4.207c.703 0 1.371.211 2.004.563a3.73 3.73 0 011.476 1.476c.352.633.563 1.3.563 2.004 0 .738-.211 1.406-.563 2.04a3.729 3.729 0 01-1.476 1.476 4.07 4.07 0 01-2.004.527 4.1 4.1 0 01-2.04-.527 3.728 3.728 0 01-1.476-1.477 4.1 4.1 0 01-.527-2.039c0-.703.176-1.371.527-2.004A3.729 3.729 0 015.836 4.77c.633-.352 1.3-.563 2.039-.563zm0 6.68a2.55 2.55 0 001.863-.774 2.574 2.574 0 00.774-1.863c0-.703-.282-1.336-.774-1.863-.527-.492-1.16-.774-1.863-.774-.738 0-1.371.282-1.863.774a2.55 2.55 0 00-.774 1.863c0 .738.246 1.371.774 1.863.492.528 1.125.774 1.863.774zm5.168-6.856c0-.246-.105-.457-.281-.668-.211-.175-.422-.281-.668-.281a.9.9 0 00-.668.281.878.878 0 00-.281.668c0 .282.07.492.28.668.177.211.387.281.669.281.246 0 .457-.07.633-.28.175-.177.28-.388.316-.669zm2.672.95c0 .667.035 1.757.035 3.269a65.04 65.04 0 01-.07 3.305 7.656 7.656 0 01-.282 1.722 4.165 4.165 0 01-.984 1.547c-.422.422-.95.739-1.512.95-.492.175-1.09.28-1.757.316-.668.035-1.758.035-3.27.035-1.547 0-2.637 0-3.305-.035-.668-.035-1.23-.14-1.722-.352a3.628 3.628 0 01-1.547-.914 4.09 4.09 0 01-.95-1.547c-.175-.492-.28-1.054-.316-1.722C0 10.887 0 9.797 0 8.25c0-1.512 0-2.602.035-3.27.035-.668.14-1.265.317-1.757.21-.563.527-1.09.949-1.512A4.15 4.15 0 012.848.727 7.66 7.66 0 014.57.445C5.238.41 6.328.375 7.875.375c1.512 0 2.602.035 3.27.07.668.035 1.265.14 1.757.282.563.21 1.09.562 1.512.984.422.422.774.95.984 1.512.141.492.247 1.09.317 1.757zm-1.688 7.91c.141-.387.211-1.02.282-1.899 0-.492.035-1.23.035-2.18V7.688c0-.95-.035-1.688-.035-2.18-.07-.88-.141-1.512-.282-1.899a2.665 2.665 0 00-1.511-1.511c-.387-.141-1.02-.211-1.899-.282-.527 0-1.265-.035-2.18-.035H7.313c-.95 0-1.688.035-2.18.035-.88.07-1.512.141-1.899.282-.738.28-1.23.808-1.511 1.511-.141.387-.246 1.02-.282 1.899-.035.527-.035 1.265-.035 2.18v1.125c0 .949 0 1.687.035 2.18.036.878.141 1.51.282 1.898.28.738.808 1.23 1.511 1.511.387.141 1.02.246 1.899.282.492.035 1.23.035 2.18.035h1.125c.949 0 1.687 0 2.18-.035.878-.036 1.51-.141 1.898-.282a2.665 2.665 0 001.511-1.511z"/></symbol>
    <symbol viewBox="0 0 16 14" id="z-menu"><path d="M4 2.625c0 .156.031.281.125.375.094.094.219.125.375.125h11A.47.47 0 0015.844 3 .518.518 0 0016 2.625v-1.25a.502.502 0 00-.156-.344.502.502 0 00-.344-.156h-11a.518.518 0 00-.375.156.47.47 0 00-.125.344v1.25zm.5 5.5c-.156 0-.281-.031-.375-.125C4.031 7.906 4 7.781 4 7.625v-1.25a.47.47 0 01.125-.344.518.518 0 01.375-.156h11c.125 0 .25.063.344.156a.502.502 0 01.156.344v1.25a.518.518 0 01-.156.375.47.47 0 01-.344.125h-11zm0 5c-.156 0-.281-.031-.375-.125-.094-.094-.125-.219-.125-.375v-1.25a.47.47 0 01.125-.344.518.518 0 01.375-.156h11c.125 0 .25.063.344.156a.502.502 0 01.156.344v1.25a.518.518 0 01-.156.375.47.47 0 01-.344.125h-11zM.5 3.5c-.156 0-.281-.031-.375-.125C.031 3.281 0 3.156 0 3V1A.47.47 0 01.125.656.518.518 0 01.5.5h2c.125 0 .25.063.344.156A.502.502 0 013 1v2a.518.518 0 01-.156.375.47.47 0 01-.344.125h-2zm0 5c-.156 0-.281-.031-.375-.125C.031 8.281 0 8.156 0 8V6a.47.47 0 01.125-.344A.518.518 0 01.5 5.5h2c.125 0 .25.063.344.156A.502.502 0 013 6v2a.518.518 0 01-.156.375.47.47 0 01-.344.125h-2zm0 5c-.156 0-.281-.031-.375-.125C.031 13.281 0 13.156 0 13v-2a.47.47 0 01.125-.344A.518.518 0 01.5 10.5h2c.125 0 .25.063.344.156A.502.502 0 013 11v2a.518.518 0 01-.156.375.47.47 0 01-.344.125h-2z"/></symbol>
    <symbol viewBox="0 0 16 16" id="z-next"><path opacity=".2" d="M6.715 1.605a.742.742 0 00-.281.598.75.75 0 00.28.598l4.22 4.043H.844a.848.848 0 00-.598.246.823.823 0 00-.246.598v1.125c0 .246.07.457.246.597.14.176.352.246.598.246h10.09L6.714 13.7c-.175.176-.28.387-.28.598 0 .246.07.457.28.598l.774.773c.14.176.352.246.598.246.21 0 .422-.07.598-.246l6.82-6.82a.848.848 0 00.246-.598c0-.21-.105-.422-.246-.598L8.684.832c-.176-.14-.387-.246-.598-.246a.848.848 0 00-.598.246l-.773.773z"/></symbol>
    <symbol viewBox="0 0 16 16" id="z-prev"><path opacity=".2" d="M9.07 14.895c.14-.141.211-.352.211-.598 0-.211-.105-.422-.246-.598L4.816 9.656h10.09c.211 0 .422-.07.598-.246a.848.848 0 00.246-.598V7.688c0-.211-.105-.422-.246-.598-.176-.14-.387-.246-.598-.246H4.816L9.036 2.8a.848.848 0 00.245-.598.96.96 0 00-.21-.598L8.26.832c-.175-.14-.386-.246-.597-.246a.848.848 0 00-.598.246l-6.82 6.82A.823.823 0 000 8.25c0 .246.07.457.246.598l6.82 6.82c.141.176.352.246.598.246.211 0 .422-.07.598-.246l.808-.773z"/></symbol>
    <symbol viewBox="0 0 19 19" id="z-search"><path d="M12.857 8.143c0 2.757-2.243 5-5 5s-5-2.243-5-5 2.243-5 5-5 5 2.243 5 5zm5.714 9.286c0-.38-.156-.748-.413-1.005l-3.828-3.828a7.84 7.84 0 001.384-4.453A7.854 7.854 0 007.857.286 7.854 7.854 0 000 8.143 7.854 7.854 0 007.857 16a7.84 7.84 0 004.453-1.384l3.828 3.817a1.4 1.4 0 001.005.424c.781 0 1.428-.647 1.428-1.428z"/></symbol>
    <symbol viewBox="0 0 20 21" id="z-user"><path d="M9.688 4.563c1.015 0 1.914.39 2.656 1.093.703.742 1.094 1.64 1.094 2.657a3.656 3.656 0 01-1.094 2.656c-.742.742-1.64 1.094-2.656 1.094-1.055 0-1.954-.352-2.657-1.094-.742-.703-1.093-1.602-1.093-2.656 0-1.016.351-1.915 1.093-2.657a3.655 3.655 0 012.657-1.093zm0 5.625a1.77 1.77 0 001.328-.547 1.8 1.8 0 00.546-1.329c0-.507-.195-.937-.546-1.328-.391-.351-.82-.546-1.329-.546-.546 0-.976.195-1.328.546-.39.391-.546.82-.546 1.329 0 .546.156.976.546 1.328.352.39.782.546 1.329.546zm0-9.376c1.718 0 3.359.47 4.843 1.329a9.488 9.488 0 013.516 3.515c.86 1.485 1.328 3.125 1.328 4.844 0 1.758-.469 3.36-1.328 4.844-.86 1.484-2.031 2.695-3.516 3.554a9.568 9.568 0 01-4.844 1.29 9.459 9.459 0 01-4.843-1.29 9.696 9.696 0 01-3.555-3.554A9.471 9.471 0 010 10.5c0-1.719.43-3.36 1.29-4.844C2.147 4.172 3.36 3 4.843 2.141 6.328 1.28 7.93.812 9.687.812zm0 17.5a8.05 8.05 0 002.734-.468 7.216 7.216 0 002.344-1.407 3.481 3.481 0 00-1.172-1.093 3.475 3.475 0 00-1.524-.469 7.42 7.42 0 01-2.383.39 7.027 7.027 0 01-2.343-.39 3.646 3.646 0 00-1.602.469c-.469.273-.86.625-1.133 1.094a7.215 7.215 0 002.344 1.406 7.9 7.9 0 002.734.468zm6.367-3.28A7.727 7.727 0 0017.5 10.5a7.615 7.615 0 00-1.055-3.906 8.302 8.302 0 00-2.851-2.852 7.615 7.615 0 00-3.906-1.054c-1.407 0-2.735.351-3.907 1.054-1.21.703-2.148 1.68-2.851 2.852A7.615 7.615 0 001.875 10.5c0 1.68.469 3.203 1.445 4.531.47-.625 1.094-1.094 1.797-1.484A5.135 5.135 0 017.422 13c.078 0 .273.04.547.117a5.612 5.612 0 001.718.274 5.82 5.82 0 001.72-.274c.234-.078.429-.117.546-.117.781 0 1.563.195 2.266.547.703.39 1.328.86 1.836 1.484z"/></symbol>
    <symbol viewBox="0 0 16 17" id="z-whatsapp"><path d="M13.395 2.66a8.897 8.897 0 011.722 2.567c.422.949.633 1.933.633 2.953 0 1.406-.387 2.707-1.09 3.902-.703 1.195-1.687 2.145-2.883 2.848a7.56 7.56 0 01-3.902 1.054c-1.336 0-2.602-.316-3.727-.949L0 16.125l1.125-4.043A7.56 7.56 0 01.07 8.18a7.56 7.56 0 011.055-3.903A7.897 7.897 0 013.973 1.43 7.56 7.56 0 017.875.375c1.02 0 2.004.21 2.953.598a9.55 9.55 0 012.567 1.687zm-5.52 12.024c1.16 0 2.25-.282 3.27-.88a6.672 6.672 0 002.39-2.355 6.194 6.194 0 00.914-3.27 6.08 6.08 0 00-.527-2.46 7.163 7.163 0 00-3.586-3.551 6.54 6.54 0 00-2.461-.492 6.5 6.5 0 00-3.27.879 6.672 6.672 0 00-2.355 2.39c-.598.985-.879 2.075-.879 3.235 0 1.265.317 2.39 1.02 3.445l.14.246-.668 2.39 2.461-.632.246.14c.985.633 2.11.915 3.305.915zm3.55-4.887l.106.07c.14.07.246.14.281.176v.352c0 .21-.07.386-.14.597-.07.211-.281.387-.563.598-.28.21-.527.316-.738.316-.351.07-.668.07-.95 0a5.639 5.639 0 01-1.405-.492c-1.196-.492-2.286-1.476-3.27-2.883l-.07-.07c-.528-.703-.774-1.371-.774-2.004 0-.598.211-1.125.633-1.582l.035-.035c.14-.14.317-.246.528-.246h.422c.07 0 .14.035.21.07.07.035.106.106.176.246l.598 1.442c.07.14.07.28.035.351-.14.246-.281.457-.457.633-.105.105-.176.176-.176.246-.035.07 0 .106.07.176.317.633.704 1.09 1.16 1.441.317.281.81.563 1.477.88.176.105.317.105.422-.036.281-.352.492-.598.633-.773.035-.07.105-.141.176-.141.07 0 .14.035.246.035.176.07.633.281 1.336.633z"/></symbol></svg>