<!-- SVG Sprite -->
<svg id="svg-sprite" class="svg-sprites">
    <!-- Gradients -->
    <defs>
        <!-- Horizontais -->
        <linearGradient id="color1_h" x1="0%" y1="0%" x2="100%" y2="0%"><stop offset="0%" stop-color="@bg(1)" /><stop offset="100%" stop-color="@bg(1:hover)" /></linearGradient>
        <linearGradient id="color2_h" x1="0%" y1="0%" x2="100%" y2="0%"><stop offset="0%" stop-color="@bg(2)" /><stop offset="100%" stop-color="@bg(2:hover)" /></linearGradient>
        <linearGradient id="color3_h" x1="0%" y1="0%" x2="100%" y2="0%"><stop offset="0%" stop-color="@bg(3)" /><stop offset="100%" stop-color="@bg(3:hover)" /></linearGradient>
        <linearGradient id="button_h" x1="0%" y1="0%" x2="100%" y2="0%"><stop offset="0%" stop-color="@button(bg)" /><stop offset="100%" stop-color="@button(bg:hover)" /></linearGradient>
        <linearGradient id="timer__gradient" x1="0%" y1="0%" x2="100%" y2="0%"><stop offset="0%" stop-color="@bg(1)" /><stop offset="100%" stop-color="@bg(2)" /></linearGradient>
        <!-- Verticais -->
        <linearGradient id="color1_v" x1="0%" y1="0%" x2="0%" y2="100%"><stop offset="0%" stop-color="@bg(1)" /><stop offset="100%" stop-color="@bg(1:hover)" /></linearGradient>
        <linearGradient id="color2_v" x1="0%" y1="0%" x2="0%" y2="100%"><stop offset="0%" stop-color="@bg(2)" /><stop offset="100%" stop-color="@bg(2:hover)" /></linearGradient>
        <linearGradient id="color3_v" x1="0%" y1="0%" x2="0%" y2="100%"><stop offset="0%" stop-color="@bg(3)" /><stop offset="100%" stop-color="@bg(3:hover)" /></linearGradient>
        <linearGradient id="button_v" x1="0%" y1="0%" x2="0%" y2="100%"><stop offset="0%" stop-color="@button(bg)" /><stop offset="100%" stop-color="@button(bg:hover)" /></linearGradient>
    </defs>
    <!--
	Ícones Obrigatórios
	* É possível alterá-los, porém não altere o ID
	-->
    <symbol id="i-play" 		viewBox="0 0 16 16"><path d="M2.9,1C1.3,0.2,0,0.9,0,2.4v11.2c0,1.5,1.3,2.1,2.9,1.4l11.9-5.6c1.6-0.8,1.6-2,0-2.7L2.9,1z"/></symbol>
    <symbol id="i-list" 		viewBox="0 0 16 16"><path d="M14.4,3.2H1.6C0.7,3.2,0,2.5,0,1.6v0C0,0.7,0.7,0,1.6,0l12.8,0C15.3,0,16,0.7,16,1.6v0 C16,2.5,15.3,3.2,14.4,3.2z M16,14.4L16,14.4c0-0.9-0.7-1.6-1.6-1.6H1.6c-0.9,0-1.6,0.7-1.6,1.6v0C0,15.3,0.7,16,1.6,16h12.8 C15.3,16,16,15.3,16,14.4z M16,8L16,8c0-0.9-0.7-1.6-1.6-1.6H1.6C0.7,6.4,0,7.1,0,8v0c0,0.9,0.7,1.6,1.6,1.6h12.8 C15.3,9.6,16,8.9,16,8z"/></symbol>
    <symbol id="i-grid" 		viewBox="0 0 16 16"><path d="M3.2,1.6c0,0.9-0.7,1.6-1.6,1.6S0,2.5,0,1.6S0.7,0,1.6,0S3.2,0.7,3.2,1.6z M8,0 C7.1,0,6.4,0.7,6.4,1.6S7.1,3.2,8,3.2s1.6-0.7,1.6-1.6S8.9,0,8,0z M14.4,0c-0.9,0-1.6,0.7-1.6,1.6s0.7,1.6,1.6,1.6S16,2.5,16,1.6 S15.3,0,14.4,0z M1.6,6.4C0.7,6.4,0,7.1,0,8s0.7,1.6,1.6,1.6S3.2,8.9,3.2,8S2.5,6.4,1.6,6.4z M8,6.4C7.1,6.4,6.4,7.1,6.4,8 S7.1,9.6,8,9.6S9.6,8.9,9.6,8S8.9,6.4,8,6.4z M14.4,6.4c-0.9,0-1.6,0.7-1.6,1.6s0.7,1.6,1.6,1.6S16,8.9,16,8S15.3,6.4,14.4,6.4z M1.6,12.8c-0.9,0-1.6,0.7-1.6,1.6S0.7,16,1.6,16s1.6-0.7,1.6-1.6S2.5,12.8,1.6,12.8z M8,12.8c-0.9,0-1.6,0.7-1.6,1.6S7.1,16,8,16 s1.6-0.7,1.6-1.6S8.9,12.8,8,12.8z M14.4,12.8c-0.9,0-1.6,0.7-1.6,1.6s0.7,1.6,1.6,1.6s1.6-0.7,1.6-1.6S15.3,12.8,14.4,12.8z"/></symbol>
    <symbol id="i-success"      viewBox="0 0 16 16"><path d="M8,0C3.6,0,0,3.6,0,8c0,4.4,3.6,8,8,8c4.4,0,8-3.6,8-8S12.4,0,8,0z M7.4,12.7l-1-0.7l0,0L2.9,9.5l0.7-1 L7.1,11l4.7-6.5l1,0.7L7.4,12.7z"/></symbol>
    <symbol id="img-truck" 		viewBox="0 0 16 16"><path d="M1.1,12L8,16l6.9-4V4L8,0L1.1,4V12z M7.5,14.6l-2.3-1.3V7l2.3,1.3V14.6z M14,11.5l-5.5,3.2V8.3 L14,5.1V11.5z M13.5,4.3L8,7.5L5.7,6.1l5.3-3.4L13.5,4.3z M8,1.1l2,1.2L4.8,5.6L2.5,4.3L8,1.1z M2,5.1l2.3,1.3v6.4L2,11.5 C2,11.5,2,5.1,2,5.1z M13.2,8.5L10.5,10v2.4l2.7-1.5V8.5z"/></symbol>
    <symbol id="img-cupon" 		viewBox="0 0 16 16"><path d="M16,0.6C16,0.3,15.8,0,15.4,0H7.5C7.4,0,7.2,0.1,7.1,0.2L0.7,6.5C0.3,6.9,0,7.5,0,8.1 c0,0.6,0.2,1.2,0.7,1.6l5.6,5.6c0.4,0.4,1,0.7,1.6,0.7s1.2-0.2,1.6-0.7l6.4-6.5C16,8.8,16,8.6,16,8.4V0.6z M7.2,14.4L1.6,8.8 C1.4,8.6,1.3,8.4,1.3,8.1c0-0.3,0.1-0.5,0.3-0.7l0.3-0.3l7,7l-0.3,0.3C8.2,14.8,7.5,14.8,7.2,14.4z M9.7,13.3l-7-7l5-5h7v6.9 L9.7,13.3z M13.2,4.4c0-1-0.8-1.8-1.7-1.8S9.7,3.4,9.7,4.4s0.8,1.8,1.7,1.8S13.2,5.4,13.2,4.4z M11.4,4.9c-0.3,0-0.6-0.2-0.6-0.6 s0.2-0.6,0.6-0.6c0.3,0,0.6,0.2,0.6,0.6S11.7,4.9,11.4,4.9z"/></symbol>
    <symbol id="img-os-new" 	viewBox="0 0 16 16"><path d="M13.5,15.9c0,0.1-0.1,0.1-0.1,0.1c-0.1,0-0.1,0-0.2,0c0,0-0.1,0-0.1,0l-0.7-0.7l-0.7,0.7 c-0.1,0.1-0.2,0.1-0.3,0l-0.7-0.7l-0.7,0.7c-0.1,0.1-0.2,0.1-0.3,0l-0.7-0.7l-0.7,0.7c-0.1,0.1-0.2,0.1-0.3,0l-0.7-0.7l-0.7,0.7 c-0.1,0.1-0.2,0.1-0.3,0l-0.7-0.7l-0.7,0.7c-0.1,0.1-0.2,0.1-0.3,0l-0.7-0.7l-0.7,0.7c0,0,0,0-0.1,0c-0.1,0-0.1,0-0.2,0 c-0.1,0-0.1-0.1-0.1-0.1c0,0,0-0.1,0-0.1V2.2c0,0,0,0,0,0c0,0,0,0,0,0c0-0.4,0.3-0.7,0.7-0.7c0,0,0,0,0,0h2.3V2H3.2c0,0,0,0,0,0 C3.1,2,3,2.1,3,2.2c0,0,0,0,0,0c0,0,0,0,0,0v13l0.5-0.5c0,0,0.1-0.1,0.2-0.1s0.1,0,0.2,0.1l0.7,0.7l0.7-0.7c0,0,0.1-0.1,0.2-0.1 c0.1,0,0.1,0,0.2,0.1l0.7,0.7L7,14.8c0,0,0.1-0.1,0.2-0.1c0.1,0,0.1,0,0.2,0.1L8,15.5l0.7-0.7c0,0,0.1-0.1,0.2-0.1 c0.1,0,0.1,0,0.2,0.1l0.7,0.7l0.7-0.7c0,0,0.1-0.1,0.2-0.1c0.1,0,0.1,0,0.2,0.1l0.7,0.7l0.7-0.7c0,0,0.1-0.1,0.2-0.1 c0.1,0,0.1,0,0.2,0.1l0.5,0.5v-13C13,2.1,12.9,2,12.8,2h-2.3V1.6h2.3c0.4,0,0.7,0.3,0.7,0.7L13.5,15.9 C13.5,15.8,13.5,15.8,13.5,15.9z M10.2,10.1c-0.2,0-0.4-0.3-0.4-0.7c0-0.4,0.2-0.7,0.4-0.7s0.4,0.3,0.4,0.7 C10.6,9.8,10.4,10.1,10.2,10.1z M6.9,11c0,0.6,0.5,1.1,1.1,1.1c0.6,0,1.1-0.5,1.1-1.1c0-0.1,0.1-0.2,0.2-0.2c0.1,0,0.2,0.1,0.2,0.2 c0,0.8-0.7,1.5-1.5,1.5S6.5,11.8,6.5,11c0-0.1,0.1-0.2,0.2-0.2C6.8,10.7,6.9,10.8,6.9,11z M6.3,1.5l0.3-0.3l1.1,1.1L10,0l0.3,0.3 L7.8,3.1L6.3,1.5z M5.8,10.1c-0.2,0-0.4-0.3-0.4-0.7c0-0.4,0.2-0.7,0.4-0.7s0.4,0.3,0.4,0.7C6.3,9.8,6.1,10.1,5.8,10.1z"/></symbol>
    <symbol id="img-os-ok" 		viewBox="0 0 16 16"><path d="M15.7,15.5H0.3c-0.2,0-0.3-0.1-0.3-0.3v-10c0,0,0,0,0,0v0c0,0,0,0,0,0c0,0,0,0,0-0.1l1.8-4.5c0,0,0,0,0,0 c0-0.1,0.1-0.2,0.2-0.2c0,0,0,0,0,0c0,0,0,0,0,0h11.8c0,0,0,0,0,0c0,0,0,0,0,0c0.1,0,0.2,0.1,0.2,0.2c0,0,0,0,0,0L16,5.1 c0,0,0,0,0,0.1c0,0,0,0,0,0v0c0,0,0,0,0,0v10C16,15.4,15.9,15.5,15.7,15.5z M2.3,1L0.7,4.9h5.6L6.8,1C6.8,1,2.3,1,2.3,1z M7.7,1H7.4 L7,4.9h0.7V1z M8.6,1H8.3v3.9H9L8.6,1z M9.1,5.5H6.9v0.7l1-0.3c0,0,0,0,0,0c0,0,0,0,0.1,0c0,0,0,0,0.1,0c0,0,0,0,0,0l1,0.3L9.1,5.5 L9.1,5.5z M13.7,1H9.2l0.4,3.9h5.6L13.7,1z M15.4,5.5H9.7v1.1c0,0,0,0,0,0c0,0,0,0,0,0c0,0,0,0,0,0c0,0.1-0.1,0.1-0.1,0.1 c0,0,0,0,0,0c0,0-0.1,0-0.2,0c0,0-0.1,0-0.1,0L8,6.5L6.7,6.9c0,0-0.1,0-0.1,0c-0.1,0-0.1,0-0.2,0c0,0,0,0,0,0c0,0-0.1-0.1-0.1-0.1 c0,0,0,0,0,0c0,0,0,0,0,0c0,0,0,0,0,0V5.5H0.6V15h14.8h0V5.5z M11,10.2c-0.3,0-0.6-0.4-0.6-0.9s0.3-0.9,0.6-0.9 c0.3,0,0.6,0.4,0.6,0.9S11.3,10.2,11,10.2z M8,13.5c-1.1,0-2.1-0.9-2.1-2.1c0-0.2,0.1-0.3,0.3-0.3c0.2,0,0.3,0.1,0.3,0.3 c0,0.8,0.7,1.5,1.5,1.5s1.5-0.7,1.5-1.5c0-0.2,0.1-0.3,0.3-0.3s0.3,0.1,0.3,0.3C10.1,12.6,9.1,13.5,8,13.5z M5,10.2 c-0.3,0-0.6-0.4-0.6-0.9S4.7,8.5,5,8.5c0.3,0,0.6,0.4,0.6,0.9S5.4,10.2,5,10.2z"/></symbol>
    <symbol id="img-os-sent" 	viewBox="0 0 16 16"><path d="M8,16C6.2,16,2.4,8.3,2.4,5.6C2.4,2.5,4.9,0,8,0s5.6,2.5,5.6,5.6C13.6,8.3,9.8,16,8,16z M8,0.5 c-2.8,0-5.1,2.3-5.1,5.1c0,2.9,3.8,9.9,5.1,9.9c1.2,0,5.1-7,5.1-9.9C13.1,2.8,10.8,0.5,8,0.5z M10.4,6.1c-0.3,0-0.5-0.3-0.5-0.7 c0-0.4,0.2-0.7,0.5-0.7s0.5,0.3,0.5,0.7C10.9,5.7,10.7,6.1,10.4,6.1z M8,8.7C7.1,8.7,6.3,8,6.3,7c0-0.1,0.1-0.2,0.2-0.2 c0.1,0,0.2,0.1,0.2,0.2c0,0.7,0.5,1.2,1.2,1.2S9.2,7.7,9.2,7c0-0.1,0.1-0.2,0.2-0.2S9.7,6.9,9.7,7C9.7,8,8.9,8.7,8,8.7z M5.6,6.1 c-0.3,0-0.5-0.3-0.5-0.7c0-0.4,0.2-0.7,0.5-0.7s0.5,0.3,0.5,0.7C6.1,5.7,5.8,6.1,5.6,6.1z"/></symbol>
    <symbol id="img-os-hold" 	viewBox="0 0 16 16"><path d="M13.1,15.9c0,0-0.1,0.1-0.1,0.1c0,0-0.1,0-0.2,0c0,0,0,0-0.1,0l-0.7-0.7l-0.7,0.7c-0.1,0.1-0.2,0.1-0.3,0 l-0.7-0.7l-0.7,0.7c-0.1,0.1-0.2,0.1-0.3,0l-0.7-0.7l-0.7,0.7c-0.1,0.1-0.2,0.1-0.3,0l-0.7-0.7l-0.7,0.7c-0.1,0.1-0.2,0.1-0.3,0 l-0.7-0.7l-0.7,0.7c-0.1,0.1-0.2,0.1-0.3,0l-0.7-0.7l-0.7,0.7c0,0,0,0-0.1,0c-0.1,0-0.1,0-0.2,0c0,0-0.1-0.1-0.1-0.1 c0,0,0-0.1,0-0.1V3.2c0,0,0,0,0,0c0,0,0,0,0,0c0-0.3,0.3-0.6,0.6-0.6c0,0,0,0,0,0h2.1V3H3.5c0,0,0,0,0,0C3.4,3,3.3,3.1,3.3,3.2 c0,0,0,0,0,0c0,0,0,0,0,0v12.1l0.5-0.5c0,0,0.1-0.1,0.1-0.1s0.1,0,0.1,0.1l0.7,0.7l0.7-0.7c0,0,0.1-0.1,0.1-0.1c0.1,0,0.1,0,0.1,0.1 l0.7,0.7L7,14.8c0,0,0.1-0.1,0.1-0.1c0.1,0,0.1,0,0.1,0.1L8,15.5l0.7-0.7c0,0,0.1-0.1,0.1-0.1c0.1,0,0.1,0,0.1,0.1l0.7,0.7l0.7-0.7 c0,0,0.1-0.1,0.1-0.1c0.1,0,0.1,0,0.1,0.1l0.7,0.7l0.7-0.7c0,0,0.1-0.1,0.1-0.1c0.1,0,0.1,0,0.1,0.1l0.5,0.5V3.2 c0-0.1-0.1-0.2-0.2-0.2h-2.1V2.6h2.1c0.3,0,0.6,0.3,0.6,0.6L13.1,15.9C13.1,15.8,13.1,15.9,13.1,15.9z M9.8,1.3l0.9-1H9.9V0h1.3v0.2 l-0.9,1h0.9v0.3H9.8L9.8,1.3L9.8,1.3z M10.9,9.8c0.1,0,0.2,0.1,0.2,0.2s-0.1,0.2-0.2,0.2H9.8c-0.1,0-0.2-0.1-0.2-0.2 c0-0.1,0.1-0.2,0.2-0.2H10.9z M9.8,12.1c0,0.1-0.1,0.2-0.2,0.2H6.4c-0.1,0-0.2-0.1-0.2-0.2c0-0.1,0.1-0.2,0.2-0.2h3.2 C9.7,11.9,9.8,12,9.8,12.1z M7,3.4l1.5-1.8H7V1.1h2.2v0.4L7.7,3.4h1.5v0.5H7V3.4z M6.2,10.2H5.1c-0.1,0-0.2-0.1-0.2-0.2 c0-0.1,0.1-0.2,0.2-0.2h1.1c0.1,0,0.2,0.1,0.2,0.2C6.4,10.1,6.3,10.2,6.2,10.2z"/></symbol>
    <symbol id="img-os-cancel"	viewBox="0 0 16 16"><path d="M14,15.9c0,0.1-0.1,0.1-0.1,0.1c-0.1,0-0.1,0-0.2,0c0,0-0.1,0-0.1-0.1l-0.8-0.8l-0.8,0.8 c-0.1,0.1-0.2,0.1-0.3,0l-0.8-0.8l-0.8,0.8C10,16,9.9,16,9.8,15.9L9,15.1l-0.8,0.8c-0.1,0.1-0.2,0.1-0.3,0L7,15.1l-0.8,0.8 C6.1,16,6,16,5.9,15.9l-0.8-0.8l-0.8,0.8C4.2,16,4,16,3.9,15.9l-0.8-0.8l-0.8,0.8c0,0,0,0-0.1,0.1c-0.1,0-0.1,0-0.2,0 C2,16,2,15.9,2,15.9c0,0,0-0.1,0-0.1v-15c0,0,0,0,0,0c0,0,0,0,0,0C1.9,0.3,2.3,0,2.7,0c0,0,0,0,0,0h10.7c0.4,0,0.7,0.3,0.7,0.7 L14,15.9C14.1,15.8,14.1,15.8,14,15.9z M13.6,0.7c0-0.1-0.1-0.2-0.2-0.2H2.7c0,0,0,0,0,0c-0.1,0-0.2,0.1-0.2,0.2c0,0,0,0,0,0 c0,0,0,0,0,0v14.4L3,14.6c0,0,0.1-0.1,0.2-0.1c0.1,0,0.1,0,0.2,0.1l0.8,0.8l0.8-0.8c0,0,0.1-0.1,0.2-0.1c0.1,0,0.1,0,0.2,0.1 l0.8,0.8l0.8-0.8c0,0,0.1-0.1,0.2-0.1c0.1,0,0.1,0,0.2,0.1L8,15.4l0.8-0.8c0,0,0.1-0.1,0.2-0.1c0.1,0,0.1,0,0.2,0.1l0.8,0.8l0.8-0.8 c0,0,0.1-0.1,0.2-0.1c0.1,0,0.1,0,0.2,0.1l0.8,0.8l0.8-0.8c0,0,0.1-0.1,0.2-0.1c0.1,0,0.1,0,0.2,0.1l0.6,0.6L13.6,0.7L13.6,0.7z M7.6,9.3h0.8v0.9H7.6V9.3z M7.6,5.8h0.8v2.8H7.6V5.8z"/></symbol>
    <symbol id="img-bill" 		viewBox="0 0 16 16"><path d="M12.9,5.4H9.2V0.5C9.2,0.2,9,0,8.7,0h-7C1.4,0,1.2,0.2,1.2,0.5v13.5c0,0,0,0,0,0c0,1.1,0.9,1.9,1.9,1.9h7 c1.1,0,1.9-0.9,1.9-1.9v-2.9h2.3c0.3,0,0.5-0.2,0.5-0.5V7.3C14.8,6.2,13.9,5.4,12.9,5.4z M3.1,14.9c-0.5,0-0.9-0.4-0.9-0.9 c0,0,0,0,0,0v-13h5.9v13c0,0.3,0.1,0.6,0.2,0.9H3.1z M11,7.3C11,7.3,11,7.3,11,7.3l0,6.8c0,0.5-0.4,0.9-0.9,0.9 c-0.5,0-0.9-0.4-0.9-0.9V6.4h2C11,6.7,11,7,11,7.3z M13.8,10.2H12V7.3c0,0,0,0,0,0c0-0.5,0.4-0.9,0.9-0.9c0.5,0,0.9,0.4,0.9,0.9 V10.2z M6.5,3.1H3.9c-0.3,0-0.5,0.2-0.5,0.5c0,0.3,0.2,0.5,0.5,0.5h2.5C6.8,4.1,7,3.9,7,3.6C7,3.3,6.8,3.1,6.5,3.1z M6.5,7H3.9 C3.6,7,3.4,7.2,3.4,7.5c0,0.3,0.2,0.5,0.5,0.5h2.5C6.8,8.1,7,7.8,7,7.5C7,7.2,6.8,7,6.5,7z M6.5,10.9H3.9c-0.3,0-0.5,0.2-0.5,0.5 c0,0.3,0.2,0.5,0.5,0.5h2.5C6.8,12,7,11.8,7,11.5C7,11.2,6.8,10.9,6.5,10.9z"/></symbol>
    <symbol id="img-track" 		viewBox="0 0 16 16"><path d="M6.6,5.4C6.8,5.3,6.9,5,6.8,4.7C6.7,4.5,6.4,4.4,6.1,4.5C4.4,5.4,3.7,7.4,4.1,9c0.5,1.9,2.2,3,3.8,3 c0.8,0,1.6-0.2,2.2-0.6c1.4-0.9,2.2-2.6,1.7-4.5c-0.1-0.3-0.4-0.4-0.6-0.3c-0.3,0.1-0.4,0.4-0.3,0.6c0.2,0.5,0.1,1.1,0,1.7 c-0.4,1.4-1.8,2.3-3.2,2.1c-1.1-0.1-2.2-1-2.5-2.1C4.7,7.3,5.6,5.9,6.6,5.4z M13.8,2.5c-0.1-0.2-0.2-0.3-0.3-0.4C12,0.8,10,0,7.9,0 c0,0-0.1,0-0.1,0C7.6,0.1,7.5,0.3,7.5,0.5c0,2.5,0,5,0,7.4c0,0.2,0.1,0.4,0.3,0.5c0.2,0.1,0.4,0,0.6-0.1l5.3-5.3 C13.8,2.9,13.8,2.7,13.8,2.5z M14.8,3.8c-0.1-0.2-0.5-0.3-0.7-0.1c-0.2,0.1-0.3,0.5-0.1,0.7C14.7,5.5,15,7,15,8.4 c-0.2,2.8-2.1,5.4-4.9,6.3c-3,0.9-6.8-0.3-8.4-3.7C1,9.6,0.9,8.1,1.1,6.7c0.6-2.9,2.8-4.9,5.2-5.4c0.1,0,0.2-0.1,0.3-0.2 c0.2-0.2,0.2-0.5,0-0.7C6.6,0.2,6.3,0.1,6.1,0.2C4.2,0.7,1.9,2,0.6,4.8c-1,2.2-1.4,6.8,2.6,9.7c1.2,0.9,2.6,1.4,4.1,1.5 c2.8,0.2,5.7-1.1,7.4-3.7C16,10.3,16.8,6.9,14.8,3.8z"/></symbol>
    <symbol id="img-facebook" 	viewBox="0 0 16 16"><path d="M9.4,16V8.7H12l0.4-2.8H9.4V4c0-0.8,0.2-1.4,1.5-1.4h1.6V0.1c-0.3,0-1.3-0.1-2.4-0.1 c-2.4,0-4,1.3-4,3.7v2.1H3.5v2.8h2.7V16H9.4L9.4,16z"/></symbol>
    <symbol id="img-twitter" 	viewBox="0 0 20 16"><path d="M9.9,5c0,0-5,0-8.5-4.2c0,0-1.9,2.9,1.3,5.4c0,0-1,0-1.9-0.5c0,0-0.2,3,3.2,4c0,0-1,0.3-1.8,0 c0,0,0.5,2.5,3.8,2.8c0,0-2.6,2.1-6.1,1.7c0,0,2.8,1.9,6,1.8C18.1,15.6,18,4,18,4s1.6-1.3,2-2.1c0,0-1.6,0.6-2.3,0.6 c0,0,1.3-0.9,1.8-2.2c0,0-1.8,0.9-2.6,0.9c0,0-1-1.3-3-1.3C11.9,0,9.3,1.6,9.9,5z"/></symbol>
    <symbol id="img-googleplus" viewBox="0 0 25 16"><path d="M21.2,9.9v4.4h-2.9V9.9h-3.9V7.1h3.8V2.9h2.9v4.2H25v2.8L21.2,9.9L21.2,9.9z M6.7,16C6.2,16,0.1,16.1,0,8.6V7.6 C0,6.8-0.1,0,6.4,0c3.7,0,5.7,1.8,6.1,5.2H9.5C9.2,3.4,8.2,2.6,6.6,2.6c-4.1,0-3.3,5.9-3.3,5.9c0,1.6,0.3,2.9,0.9,3.7 c1.2,1.7,4.2,1.5,5.3,0.5V10H6.6V7.6h6.1v6.2C11.5,15.2,9.2,16,6.7,16z"/></symbol>
    <symbol id="img-linkedin" 	viewBox="0 0 16 16"><path d="M14.9,16H1.1C0.5,16,0,15.5,0,14.9V1.1C0,0.5,0.5,0,1.1,0h13.8C15.5,0,16,0.5,16,1.1v13.8 C16,15.5,15.5,16,14.9,16z M2.3,13.7h2.4V6H2.3V13.7z M3.6,2.2c-0.7,0-1.3,0.6-1.3,1.3s0.6,1.3,1.3,1.3c0.7,0,1.3-0.6,1.3-1.3 S4.3,2.2,3.6,2.2z M13.7,10.2c0-3.7-1-4.3-2.8-4.3c-1.4,0-2.1,0.7-2.3,0.9V6H6.3v7.7h2.3V9.9c0-1.4,0.6-2,1.5-2 c0.8,0,1.2,0.7,1.2,2.3v3.5h2.4L13.7,10.2L13.7,10.2z"/></symbol>
    <symbol id="img-pinterest" 	viewBox="0 0 16 16"><path d="M8,16c-0.9,0-1.7-0.1-2.4-0.4c0.2-0.2,0.8-1.1,1-1.8c0.2-0.8,0.6-2.2,0.6-2.2s0.4,0.9,1.8,0.9 s4.1-1.4,4.1-5c0-1.7-1.4-4.5-5-4.5S3,5.5,3,7.8c0,2.3,1.7,3.1,1.7,3.1L5,9.8c0,0-0.7-0.6-0.7-2S5.3,4.4,8,4.4s3.3,2.1,3.3,3.3 s-0.6,3.6-2.6,3.6c-0.9,0-1.2-0.6-1.2-1.2s0.7-2.4,0.7-3S7.9,6,7.3,6S5.8,6.7,5.8,8c0,0.8,0.3,1.2,0.3,1.2s-1,4.1-1,4.9 c0,0.5,0,1.1,0.1,1.4C2.1,14.3,0,11.4,0,8c0-4.4,3.6-8,8-8s8,3.6,8,8S12.4,16,8,16z"/></symbol>
    <symbol id="img-whatsapp" 	viewBox="0 0 16 16"><path d="M8.1,15.6c-1.4,0-2.7-0.4-3.8-1L0,16l1.4-4.2c-0.7-1.2-1.1-2.6-1.1-4C0.3,3.5,3.8,0,8.1,0 C12.5,0,16,3.5,16,7.8C16,12.1,12.5,15.6,8.1,15.6z M8.1,1.2c-3.6,0-6.6,2.9-6.6,6.6c0,1.4,0.5,2.8,1.3,3.8L2,14.1l2.5-0.8 c1,0.7,2.3,1.1,3.6,1.1c3.6,0,6.6-2.9,6.6-6.6C14.7,4.2,11.8,1.2,8.1,1.2z M10.3,11.4c-2.3-0.1-5.9-2.9-6-5.4 C4.2,4.3,5.6,4.2,5.9,4.2c0.4,0,0.4,0.6,1,1.7c0.2,0.4-0.8,1.1-0.5,1.4c0.1,0.2,0.5,0.8,1.1,1.3c0.9,0.9,1.7,1,1.9,0.9 c0.4-0.1,0.5-0.8,1-0.9c0.2,0,1.8,0.7,1.8,0.9C12.2,10.9,11,11.5,10.3,11.4z"/></symbol>
    <symbol id="img-tumblr" 	viewBox="0 0 16 16"><path d="M3.4,4.4c0,0,3.1-1.2,3.1-4.4H9v4h2.9v2.8H9c0,0,0,4,0,4.9c0,2.1,2.8,1.2,2.8,1.2l0.8,2.2 c0,0-1.3,0.9-2.9,0.9c-1.6,0-4.4-1-4.4-4.4s0-4.8,0-4.8H3.4L3.4,4.4L3.4,4.4z"/></symbol>

    <!--
	Ícones opcionais
	* Caso exclua um destes sprites, lembre-se de apagar a chamada nas inserções
	-->
    <symbol id="i-menu"     viewBox="0 0 16 16"><path d="M14.4,3.2H1.6C0.7,3.2,0,2.5,0,1.6v0C0,0.7,0.7,0,1.6,0l12.8,0C15.3,0,16,0.7,16,1.6v0 C16,2.5,15.3,3.2,14.4,3.2z M16,14.4L16,14.4c0-0.9-0.7-1.6-1.6-1.6H1.6c-0.9,0-1.6,0.7-1.6,1.6v0C0,15.3,0.7,16,1.6,16h12.8 C15.3,16,16,15.3,16,14.4z M16,8L16,8c0-0.9-0.7-1.6-1.6-1.6H1.6C0.7,6.4,0,7.1,0,8v0c0,0.9,0.7,1.6,1.6,1.6h12.8 C15.3,9.6,16,8.9,16,8z"/></symbol>
    <symbol id="i-search"   viewBox="0 0 16 16"><path d="M6.9,13.9c1.7,0,3.3-0.6,4.5-1.6l3.6,3.6c0.2,0.2,0.6,0.2,0.9,0c0.2-0.2,0.2-0.6,0-0.9l-3.6-3.6 c1-1.2,1.6-2.8,1.6-4.5c0-3.8-3.1-6.9-6.9-6.9S0,3.1,0,6.9S3.1,13.9,6.9,13.9z M6.9,1.2c3.2,0,5.7,2.6,5.7,5.7c0,1.6-0.6,3-1.7,4.1 c0,0,0,0,0,0c0,0,0,0,0,0c-1,1-2.5,1.7-4.1,1.7c-3.2,0-5.7-2.6-5.7-5.7S3.8,1.2,6.9,1.2z"/></symbol>
    <symbol id="i-cart"     viewBox="0 0 16 16"><path d="M15.2,15.5l-0.9-11c0-0.2-0.2-0.4-0.4-0.4h-2V3.9C11.9,1.8,10.2,0,8,0S4.1,1.8,4.1,3.9v0.2h-2 c-0.2,0-0.4,0.2-0.4,0.4L0.8,15.6c0,0.1,0,0.2,0.1,0.3C1,16,1.1,16,1.2,16h13.7c0,0,0,0,0,0C15,16,15.2,15.8,15.2,15.5 C15.2,15.6,15.2,15.5,15.2,15.5z M4.9,3.9c0-1.7,1.4-3.1,3.1-3.1s3.1,1.4,3.1,3.1v0.2H4.9V3.9z M1.6,15.2L2.5,4.9h1.6v0.6 C3.8,5.7,3.7,5.9,3.7,6.2C3.7,6.7,4,7,4.5,7s0.8-0.4,0.8-0.8c0-0.3-0.2-0.6-0.4-0.7V4.9h6.3v0.6c-0.2,0.1-0.4,0.4-0.4,0.7 c0,0.4,0.4,0.8,0.8,0.8s0.8-0.4,0.8-0.8c0-0.3-0.2-0.6-0.4-0.7V4.9h1.6l0.9,10.3H1.6L1.6,15.2z"/></symbol>
    <symbol id="i-wish"     viewBox="0 0 16 16"><path d="M2,9.2C0.6,7.6,0,5.9,0,4.4C0,1.7,1.5,0,3.8,0C6,0,6.7,1.1,8,2.8C9.3,1.1,10,0,12.2,0 C14.5,0,16,1.7,16,4.4c0,1.5-0.6,3.2-2,4.8L8,16L2,9.2z"/></symbol>
    <symbol id="i-user"     viewBox="0 0 16 16">
        <path class="female" d="M8,0C6.2,0,3.7,1.2,3.7,3.9v1.5C3.1,5.4,2.7,6,2.7,6.6s0.5,1.1,1.1,1.2c-0.1,2.4-0.8,5.6-2.4,6 C1.6,15,2.6,16,3.4,16h9.3c0.5,0,1.8-0.6,2.3-2.2c-1.7-0.3-2.7-3.7-2.7-6c0.6-0.1,1.1-0.6,1.1-1.2s-0.5-1.1-1.1-1.2V3.9 C12.3,1.9,11.4,0,8,0z M8.7,13.3c0,0.6-1.5,0.5-1.5,0v-0.9c0.1,0.1,1.3,0.1,1.5,0V13.3z M12.6,6.6c0,0.3-0.2,0.6-0.6,0.6 c-0.1,0-0.5,0-0.5,0v1.4c0,1.8-1.4,3.2-3.2,3.2H7.6c-1.8,0-3.2-1.4-3.2-3.2V7.1l-0.5,0c-0.3,0-0.6-0.2-0.6-0.6S3.6,6,3.9,6l0.5,0 V4.3c2.9,0.6,3.7-1,4.7-1c1,0,1.6,1.8,1.6,1.8c0.8-0.4,0.8-0.8,0.8-1V6c0,0,0.5,0,0.5,0C12.4,6,12.6,6.3,12.6,6.6z M8,8.2 c0.3,0,0.5-0.2,0.5-0.4c0-0.2-0.2-0.4-0.5-0.4c-0.3,0-0.5,0.2-0.5,0.4C7.5,8,7.7,8.2,8,8.2z M10,6C9.7,6,9.4,6.3,9.4,6.6 S9.7,7.1,10,7.1c0.3,0,0.5-0.2,0.5-0.5S10.3,6,10,6z M6.6,6.6C6.6,6.3,6.3,6,6,6S5.5,6.3,5.5,6.6S5.7,7.1,6,7.1S6.6,6.9,6.6,6.6z M10.1,8.8c-0.2-0.1-0.4,0-0.4,0.2C9.3,9.6,8.7,10,8,10c-0.7,0-1.3-0.4-1.6-1C6.3,8.8,6.1,8.7,5.9,8.8C5.7,8.8,5.7,9,5.7,9.2 C6.2,10.1,7,10.7,8,10.7c1,0,1.8-0.6,2.3-1.4C10.3,9,10.3,8.8,10.1,8.8z"/>
        <path class="male" d="M8,0C6.2,0,3.7,1.2,3.7,3.9v1.5C3.1,5.4,2.7,6,2.7,6.6s0.5,1.1,1.1,1.2v0.7c0,1.8,1.2,3.3,2.9,3.8 v0.3c-2.8,0-3.8,3.4-3.8,3.4h10.5c0,0-1.2-3.4-3.8-3.4v-0.3c1.6-0.5,2.9-2,2.9-3.8V7.8c0.6-0.1,1.1-0.6,1.1-1.2s-0.5-1.1-1.1-1.2 V5.1c2-0.4,2.2-1.4,2.2-1.8C12.8,3.6,11.4,0,8,0z M8.7,13.3c0,0.6-1.5,0.5-1.5,0v-0.9c0.1,0.1,1.3,0.1,1.5,0V13.3z M12.6,6.6 c0,0.3-0.2,0.6-0.6,0.6c-0.1,0-0.5,0-0.5,0v1.4c0,1.8-1.4,3.2-3.2,3.2H7.6c-1.8,0-3.2-1.4-3.2-3.2V7.1l-0.5,0 c-0.3,0-0.6-0.2-0.6-0.6S3.6,6,3.9,6l0.5,0l0.8-2.2C6,4.3,7.8,5.5,11.6,5.2V6c0,0,0.5,0,0.5,0C12.4,6,12.6,6.3,12.6,6.6z M8,8.2 c0.3,0,0.5-0.2,0.5-0.4c0-0.2-0.2-0.4-0.5-0.4c-0.3,0-0.5,0.2-0.5,0.4C7.5,8,7.7,8.2,8,8.2z M10,6C9.7,6,9.4,6.3,9.4,6.6 S9.7,7.1,10,7.1c0.3,0,0.5-0.2,0.5-0.5S10.3,6,10,6z M6.6,6.6C6.6,6.3,6.3,6,6,6S5.5,6.3,5.5,6.6S5.7,7.1,6,7.1S6.6,6.9,6.6,6.6z M10.1,8.8c-0.2-0.1-0.4,0-0.4,0.2C9.3,9.6,8.7,10,8,10c-0.7,0-1.3-0.4-1.6-1C6.3,8.8,6.1,8.7,5.9,8.8C5.7,8.8,5.7,9,5.7,9.2 C6.2,10.1,7,10.7,8,10.7c1,0,1.8-0.6,2.3-1.4C10.3,9,10.3,8.8,10.1,8.8z"/>
    </symbol>

    <!-- Tema The Best Hair -->
    <symbol viewBox="0 0 18 21" id="z-cart"><path d="M13.75 6.75h3.75v10.625c0 .86-.313 1.602-.938 2.227-.625.625-1.328.898-2.187.898H3.125c-.86 0-1.602-.273-2.227-.898C.273 18.977 0 18.234 0 17.375V6.75h3.75V5.5c0-.898.195-1.719.664-2.5.43-.781 1.016-1.367 1.797-1.836A5.128 5.128 0 018.75.5c.898 0 1.719.234 2.5.664A5.167 5.167 0 0113.086 3c.43.781.664 1.602.664 2.5v1.25zM6.25 5.5v1.25h5V5.5c0-.664-.273-1.25-.742-1.758C10 3.273 9.414 3 8.75 3c-.703 0-1.29.273-1.758.742-.508.508-.742 1.094-.742 1.758zm6.25 4.688a.915.915 0 00.664-.274.943.943 0 00.274-.664c0-.234-.118-.469-.274-.664-.195-.156-.43-.274-.664-.274a.943.943 0 00-.664.274.915.915 0 00-.274.664c0 .273.079.508.274.664.156.195.39.274.664.274zm-7.5 0a.915.915 0 00.664-.274.942.942 0 00.274-.664c0-.234-.118-.469-.274-.664-.195-.156-.43-.274-.664-.274a.942.942 0 00-.664.274.915.915 0 00-.274.664c0 .273.079.508.274.664.156.195.39.274.664.274z"/></symbol>
    <symbol viewBox="0 0 16 17" id="z-chat"><path d="M14 0c.531 0 1 .219 1.406.594C15.781 1 16 1.469 16 2v9c0 .563-.219 1.031-.594 1.406A1.915 1.915 0 0114 13H9.5l-3.906 2.938a.385.385 0 01-.407.03c-.125-.062-.187-.187-.187-.343V13H2c-.563 0-1.031-.188-1.406-.594C.188 12.031 0 11.562 0 11V2C0 1.469.188 1 .594.594A1.934 1.934 0 012 0h12z"/></symbol>
    <symbol viewBox="0 0 16 17" id="z-facebook"><path d="M15.75 1.254a.88.88 0 00-.281-.633c-.176-.14-.387-.246-.598-.246H.88a.872.872 0 00-.633.246.847.847 0 00-.246.633v13.992c0 .246.07.457.246.633.14.176.352.246.633.246h7.523v-6.117h-2.04V7.652h2.04V5.895c0-.985.28-1.758.843-2.32.563-.528 1.3-.81 2.215-.81.703 0 1.336.036 1.828.07V4.98h-1.266c-.457 0-.773.106-.949.317-.14.176-.21.457-.21.844v1.511h2.355l-.317 2.356h-2.039v6.117h4.008c.246 0 .457-.07.633-.246a1.01 1.01 0 00.246-.633V1.254z"/></symbol>
    <symbol viewBox="0 0 16 17" id="z-instagram"><path d="M7.875 4.207c.703 0 1.371.211 2.004.563a3.73 3.73 0 011.476 1.476c.352.633.563 1.3.563 2.004 0 .738-.211 1.406-.563 2.04a3.729 3.729 0 01-1.476 1.476 4.07 4.07 0 01-2.004.527 4.1 4.1 0 01-2.04-.527 3.728 3.728 0 01-1.476-1.477 4.1 4.1 0 01-.527-2.039c0-.703.176-1.371.527-2.004A3.729 3.729 0 015.836 4.77c.633-.352 1.3-.563 2.039-.563zm0 6.68a2.55 2.55 0 001.863-.774 2.574 2.574 0 00.774-1.863c0-.703-.282-1.336-.774-1.863-.527-.492-1.16-.774-1.863-.774-.738 0-1.371.282-1.863.774a2.55 2.55 0 00-.774 1.863c0 .738.246 1.371.774 1.863.492.528 1.125.774 1.863.774zm5.168-6.856c0-.246-.105-.457-.281-.668-.211-.175-.422-.281-.668-.281a.9.9 0 00-.668.281.878.878 0 00-.281.668c0 .282.07.492.28.668.177.211.387.281.669.281.246 0 .457-.07.633-.28.175-.177.28-.388.316-.669zm2.672.95c0 .667.035 1.757.035 3.269a65.04 65.04 0 01-.07 3.305 7.656 7.656 0 01-.282 1.722 4.165 4.165 0 01-.984 1.547c-.422.422-.95.739-1.512.95-.492.175-1.09.28-1.757.316-.668.035-1.758.035-3.27.035-1.547 0-2.637 0-3.305-.035-.668-.035-1.23-.14-1.722-.352a3.628 3.628 0 01-1.547-.914 4.09 4.09 0 01-.95-1.547c-.175-.492-.28-1.054-.316-1.722C0 10.887 0 9.797 0 8.25c0-1.512 0-2.602.035-3.27.035-.668.14-1.265.317-1.757.21-.563.527-1.09.949-1.512A4.15 4.15 0 012.848.727 7.66 7.66 0 014.57.445C5.238.41 6.328.375 7.875.375c1.512 0 2.602.035 3.27.07.668.035 1.265.14 1.757.282.563.21 1.09.562 1.512.984.422.422.774.95.984 1.512.141.492.247 1.09.317 1.757zm-1.688 7.91c.141-.387.211-1.02.282-1.899 0-.492.035-1.23.035-2.18V7.688c0-.95-.035-1.688-.035-2.18-.07-.88-.141-1.512-.282-1.899a2.665 2.665 0 00-1.511-1.511c-.387-.141-1.02-.211-1.899-.282-.527 0-1.265-.035-2.18-.035H7.313c-.95 0-1.688.035-2.18.035-.88.07-1.512.141-1.899.282-.738.28-1.23.808-1.511 1.511-.141.387-.246 1.02-.282 1.899-.035.527-.035 1.265-.035 2.18v1.125c0 .949 0 1.687.035 2.18.036.878.141 1.51.282 1.898.28.738.808 1.23 1.511 1.511.387.141 1.02.246 1.899.282.492.035 1.23.035 2.18.035h1.125c.949 0 1.687 0 2.18-.035.878-.036 1.51-.141 1.898-.282a2.665 2.665 0 001.511-1.511z"/></symbol>
    <symbol viewBox="0 0 16 14" id="z-menu"><path d="M4 2.625c0 .156.031.281.125.375.094.094.219.125.375.125h11A.47.47 0 0015.844 3 .518.518 0 0016 2.625v-1.25a.502.502 0 00-.156-.344.502.502 0 00-.344-.156h-11a.518.518 0 00-.375.156.47.47 0 00-.125.344v1.25zm.5 5.5c-.156 0-.281-.031-.375-.125C4.031 7.906 4 7.781 4 7.625v-1.25a.47.47 0 01.125-.344.518.518 0 01.375-.156h11c.125 0 .25.063.344.156a.502.502 0 01.156.344v1.25a.518.518 0 01-.156.375.47.47 0 01-.344.125h-11zm0 5c-.156 0-.281-.031-.375-.125-.094-.094-.125-.219-.125-.375v-1.25a.47.47 0 01.125-.344.518.518 0 01.375-.156h11c.125 0 .25.063.344.156a.502.502 0 01.156.344v1.25a.518.518 0 01-.156.375.47.47 0 01-.344.125h-11zM.5 3.5c-.156 0-.281-.031-.375-.125C.031 3.281 0 3.156 0 3V1A.47.47 0 01.125.656.518.518 0 01.5.5h2c.125 0 .25.063.344.156A.502.502 0 013 1v2a.518.518 0 01-.156.375.47.47 0 01-.344.125h-2zm0 5c-.156 0-.281-.031-.375-.125C.031 8.281 0 8.156 0 8V6a.47.47 0 01.125-.344A.518.518 0 01.5 5.5h2c.125 0 .25.063.344.156A.502.502 0 013 6v2a.518.518 0 01-.156.375.47.47 0 01-.344.125h-2zm0 5c-.156 0-.281-.031-.375-.125C.031 13.281 0 13.156 0 13v-2a.47.47 0 01.125-.344A.518.518 0 01.5 10.5h2c.125 0 .25.063.344.156A.502.502 0 013 11v2a.518.518 0 01-.156.375.47.47 0 01-.344.125h-2z"/></symbol>
    <symbol viewBox="0 0 16 16" id="z-next"><path d="M6.715 1.605a.742.742 0 00-.281.598.75.75 0 00.28.598l4.22 4.043H.844a.848.848 0 00-.598.246.823.823 0 00-.246.598v1.125c0 .246.07.457.246.597.14.176.352.246.598.246h10.09L6.714 13.7c-.175.176-.28.387-.28.598 0 .246.07.457.28.598l.774.773c.14.176.352.246.598.246.21 0 .422-.07.598-.246l6.82-6.82a.848.848 0 00.246-.598c0-.21-.105-.422-.246-.598L8.684.832c-.176-.14-.387-.246-.598-.246a.848.848 0 00-.598.246l-.773.773z"/></symbol>
    <symbol viewBox="0 0 16 16" id="z-prev"><path d="M9.07 14.895c.14-.141.211-.352.211-.598 0-.211-.105-.422-.246-.598L4.816 9.656h10.09c.211 0 .422-.07.598-.246a.848.848 0 00.246-.598V7.688c0-.211-.105-.422-.246-.598-.176-.14-.387-.246-.598-.246H4.816L9.036 2.8a.848.848 0 00.245-.598.96.96 0 00-.21-.598L8.26.832c-.175-.14-.386-.246-.597-.246a.848.848 0 00-.598.246l-6.82 6.82A.823.823 0 000 8.25c0 .246.07.457.246.598l6.82 6.82c.141.176.352.246.598.246.211 0 .422-.07.598-.246l.808-.773z"/></symbol>
    <symbol viewBox="0 0 19 19" id="z-search"><path d="M12.857 8.143c0 2.757-2.243 5-5 5s-5-2.243-5-5 2.243-5 5-5 5 2.243 5 5zm5.714 9.286c0-.38-.156-.748-.413-1.005l-3.828-3.828a7.84 7.84 0 001.384-4.453A7.854 7.854 0 007.857.286 7.854 7.854 0 000 8.143 7.854 7.854 0 007.857 16a7.84 7.84 0 004.453-1.384l3.828 3.817a1.4 1.4 0 001.005.424c.781 0 1.428-.647 1.428-1.428z"/></symbol>
    <symbol viewBox="0 0 20 21" id="z-user"><path d="M9.688 4.563c1.015 0 1.914.39 2.656 1.093.703.742 1.094 1.64 1.094 2.657a3.656 3.656 0 01-1.094 2.656c-.742.742-1.64 1.094-2.656 1.094-1.055 0-1.954-.352-2.657-1.094-.742-.703-1.093-1.602-1.093-2.656 0-1.016.351-1.915 1.093-2.657a3.655 3.655 0 012.657-1.093zm0 5.625a1.77 1.77 0 001.328-.547 1.8 1.8 0 00.546-1.329c0-.507-.195-.937-.546-1.328-.391-.351-.82-.546-1.329-.546-.546 0-.976.195-1.328.546-.39.391-.546.82-.546 1.329 0 .546.156.976.546 1.328.352.39.782.546 1.329.546zm0-9.376c1.718 0 3.359.47 4.843 1.329a9.488 9.488 0 013.516 3.515c.86 1.485 1.328 3.125 1.328 4.844 0 1.758-.469 3.36-1.328 4.844-.86 1.484-2.031 2.695-3.516 3.554a9.568 9.568 0 01-4.844 1.29 9.459 9.459 0 01-4.843-1.29 9.696 9.696 0 01-3.555-3.554A9.471 9.471 0 010 10.5c0-1.719.43-3.36 1.29-4.844C2.147 4.172 3.36 3 4.843 2.141 6.328 1.28 7.93.812 9.687.812zm0 17.5a8.05 8.05 0 002.734-.468 7.216 7.216 0 002.344-1.407 3.481 3.481 0 00-1.172-1.093 3.475 3.475 0 00-1.524-.469 7.42 7.42 0 01-2.383.39 7.027 7.027 0 01-2.343-.39 3.646 3.646 0 00-1.602.469c-.469.273-.86.625-1.133 1.094a7.215 7.215 0 002.344 1.406 7.9 7.9 0 002.734.468zm6.367-3.28A7.727 7.727 0 0017.5 10.5a7.615 7.615 0 00-1.055-3.906 8.302 8.302 0 00-2.851-2.852 7.615 7.615 0 00-3.906-1.054c-1.407 0-2.735.351-3.907 1.054-1.21.703-2.148 1.68-2.851 2.852A7.615 7.615 0 001.875 10.5c0 1.68.469 3.203 1.445 4.531.47-.625 1.094-1.094 1.797-1.484A5.135 5.135 0 017.422 13c.078 0 .273.04.547.117a5.612 5.612 0 001.718.274 5.82 5.82 0 001.72-.274c.234-.078.429-.117.546-.117.781 0 1.563.195 2.266.547.703.39 1.328.86 1.836 1.484z"/></symbol>
    <symbol viewBox="0 0 16 17" id="z-whatsapp"><path d="M13.395 2.66a8.897 8.897 0 011.722 2.567c.422.949.633 1.933.633 2.953 0 1.406-.387 2.707-1.09 3.902-.703 1.195-1.687 2.145-2.883 2.848a7.56 7.56 0 01-3.902 1.054c-1.336 0-2.602-.316-3.727-.949L0 16.125l1.125-4.043A7.56 7.56 0 01.07 8.18a7.56 7.56 0 011.055-3.903A7.897 7.897 0 013.973 1.43 7.56 7.56 0 017.875.375c1.02 0 2.004.21 2.953.598a9.55 9.55 0 012.567 1.687zm-5.52 12.024c1.16 0 2.25-.282 3.27-.88a6.672 6.672 0 002.39-2.355 6.194 6.194 0 00.914-3.27 6.08 6.08 0 00-.527-2.46 7.163 7.163 0 00-3.586-3.551 6.54 6.54 0 00-2.461-.492 6.5 6.5 0 00-3.27.879 6.672 6.672 0 00-2.355 2.39c-.598.985-.879 2.075-.879 3.235 0 1.265.317 2.39 1.02 3.445l.14.246-.668 2.39 2.461-.632.246.14c.985.633 2.11.915 3.305.915zm3.55-4.887l.106.07c.14.07.246.14.281.176v.352c0 .21-.07.386-.14.597-.07.211-.281.387-.563.598-.28.21-.527.316-.738.316-.351.07-.668.07-.95 0a5.639 5.639 0 01-1.405-.492c-1.196-.492-2.286-1.476-3.27-2.883l-.07-.07c-.528-.703-.774-1.371-.774-2.004 0-.598.211-1.125.633-1.582l.035-.035c.14-.14.317-.246.528-.246h.422c.07 0 .14.035.21.07.07.035.106.106.176.246l.598 1.442c.07.14.07.28.035.351-.14.246-.281.457-.457.633-.105.105-.176.176-.176.246-.035.07 0 .106.07.176.317.633.704 1.09 1.16 1.441.317.281.81.563 1.477.88.176.105.317.105.422-.036.281-.352.492-.598.633-.773.035-.07.105-.141.176-.141.07 0 .14.035.246.035.176.07.633.281 1.336.633z"/></symbol>
    <symbol viewBox="0 0 7 5" id="z-down"><path d="M2.793 4.125c.078.098.195.137.332.137.117 0 .234-.04.332-.137l2.656-2.656a.471.471 0 00.137-.332.554.554 0 00-.137-.332l-.449-.43a.554.554 0 00-.332-.137A.471.471 0 005 .375L3.125 2.25 1.25.375A.554.554 0 00.918.238a.471.471 0 00-.332.137l-.45.43A.457.457 0 000 1.137c0 .136.04.254.137.332l2.656 2.656z"/></symbol>
    <symbol viewBox="0 0 16 13" id="z-card"><path d="M0 11.313V6.5h15.75v4.813c0 .382-.137.683-.383.93a1.239 1.239 0 01-.93.382H1.313c-.383 0-.684-.11-.93-.383-.274-.246-.383-.547-.383-.93zm5.25-1.86v1.094c0 .11.027.191.082.246.055.055.137.082.246.082h3.719a.31.31 0 00.219-.082.347.347 0 00.109-.246V9.453c0-.082-.055-.164-.11-.219-.054-.054-.136-.109-.218-.109H5.578a.347.347 0 00-.246.11.31.31 0 00-.082.218zm-3.5 0v1.094c0 .11.027.191.082.246.055.055.137.082.246.082h1.969a.31.31 0 00.219-.082.347.347 0 00.109-.246V9.453c0-.082-.055-.164-.11-.219-.054-.054-.136-.109-.218-.109H2.078a.347.347 0 00-.246.11.31.31 0 00-.082.218zm14-7.765c0-.356-.137-.657-.383-.93-.273-.246-.574-.383-.93-.383H1.313a1.26 1.26 0 00-.931.383 1.239 1.239 0 00-.383.93V3h15.75V1.687z"/></symbol>
    <symbol viewBox="0 0 26 22" id="z-heart"><path d="M22.469 2a7.658 7.658 0 012.297 3.469 7.264 7.264 0 010 3.75c-.375 1.265-.938 2.344-1.782 3.187l-8.203 8.344A2.448 2.448 0 0113 21.5c-.703 0-1.313-.234-1.781-.75l-8.203-8.344c-.844-.844-1.454-1.922-1.782-3.187-.375-1.266-.328-2.531.047-3.75C1.656 4.156 2.406 2.984 3.531 2 4.375 1.25 5.406.781 6.578.594A7.114 7.114 0 0110 .875a7.629 7.629 0 013 1.828A7.46 7.46 0 0115.953.875a7.258 7.258 0 013.469-.281A6.279 6.279 0 0122.469 2zm-1.078 8.813c.562-.563.937-1.313 1.172-2.157a4.814 4.814 0 000-2.578 5.149 5.149 0 00-1.547-2.344c-.938-.75-2.016-1.078-3.235-.984a4.75 4.75 0 00-3.14 1.5L13 5.89l-1.64-1.64c-.891-.89-1.97-1.406-3.188-1.5-1.219-.094-2.297.234-3.188.984-.796.657-1.312 1.454-1.546 2.344a4.396 4.396 0 00-.047 2.578c.234.844.656 1.594 1.218 2.156l8.25 8.344c.094.14.188.14.282 0l8.25-8.343z"/></symbol>
    <symbol viewBox="0 0 40 30" id="z-mail"><path d="M39.219 9.922c-1.875 1.484-5.938 4.453-12.032 8.828l-.78.625c-1.25.938-2.188 1.64-2.97 2.031-1.25.782-2.421 1.094-3.437 1.094-1.094 0-2.188-.313-3.438-1.016-.78-.39-1.718-1.093-2.968-2.03l-.781-.704C6.484 14.219 2.5 11.25.78 9.922a.667.667 0 00-.547 0 .43.43 0 00-.234.39V26.25c0 1.094.313 1.953 1.094 2.656C1.797 29.688 2.656 30 3.75 30h32.5c1.016 0 1.875-.313 2.656-1.094C39.61 28.203 40 27.344 40 26.25V10.312c0-.156-.156-.312-.313-.468-.156-.078-.312-.078-.468.078zM20 20c-.703 0-1.563-.313-2.5-.938-.625-.312-1.406-.859-2.422-1.718l-.781-.547C7.89 12.109 3.516 8.907 1.25 7.109l-.547-.39C.234 6.406 0 5.859 0 5.234V3.75c0-1.016.313-1.875 1.094-2.656C1.797.39 2.656 0 3.75 0h32.5c1.016 0 1.875.39 2.656 1.094C39.61 1.875 40 2.734 40 3.75v1.484c0 .625-.234 1.172-.703 1.485l-.39.312c-2.266 1.797-6.641 5.078-13.204 9.766l-.781.547c-1.094.86-1.875 1.406-2.422 1.718-1.016.625-1.875.938-2.5.938z"/></symbol>
</svg>