<svg width="277" height="34" viewBox="0 0 277 34" fill="none" xmlns="http://www.w3.org/2000/svg">
<path d="M8.42931 20.5228H5.93543V11.5639H0.900024V9.72128H13.3694V11.5639H8.42931V20.5228Z" fill="black"/>
<path d="M15.9066 9.72128H18.4005V13.9942H26.3904V9.72128H28.8843V20.5228H26.3904V15.9639H18.4005V20.5228H15.9066V9.72128Z" fill="black"/>
<path d="M33.0166 9.72128H44.2152V11.5639H35.5105V14.026H40.6094V15.9639H35.5105V18.569H44.2947V20.5228H33.0166V9.72128Z" fill="black"/>
<path d="M69.2202 17.0219C69.6427 17.0219 69.9646 16.9414 70.186 16.7804C70.4073 16.5994 70.518 16.2473 70.518 15.7241V13.0984C70.518 12.5552 70.4073 12.203 70.186 12.0421C69.9646 11.861 69.6427 11.7705 69.2202 11.7705H57.1177V17.0219H69.2202ZM70.3671 4.3762C70.3671 4.03415 70.2463 3.78264 70.0049 3.62168C69.7836 3.46072 69.4113 3.38023 68.8882 3.38023H57.1177V8.36004H68.8882C69.4113 8.36004 69.7836 8.29968 70.0049 8.17896C70.2463 8.03812 70.3671 7.76649 70.3671 7.36408V4.3762ZM71.9666 10.0502C72.2886 10.1508 72.6306 10.2614 72.9928 10.3821C73.3549 10.5029 73.6869 10.694 73.9887 10.9556C74.3107 11.197 74.5722 11.5491 74.7734 12.0119C74.9746 12.4546 75.0752 13.0682 75.0752 13.8529V16.5994C75.0752 17.9676 74.6125 18.9635 73.6869 19.5873C72.7614 20.211 71.4435 20.5229 69.7333 20.5229H52.5303V0H69.7333C70.5984 0 71.353 0.0603612 71.9968 0.181083C72.6608 0.301806 73.204 0.52313 73.6266 0.845058C74.0491 1.14686 74.361 1.55933 74.5622 2.08247C74.7835 2.58548 74.8942 3.22933 74.8942 4.01403V6.85101C74.8942 7.37414 74.7936 7.81679 74.5923 8.17896C74.4113 8.54113 74.1799 8.85299 73.8982 9.11456C73.6165 9.356 73.3046 9.54715 72.9626 9.68799C72.6205 9.82883 72.2886 9.92944 71.9666 9.9898V10.0502Z" fill="black"/>
<path d="M82.6225 0H103.9V3.50096H87.3609V8.17896H97.0489V11.861H87.3609V16.8106H104.051V20.5229H82.6225V0Z" fill="black"/>
<path d="M115.321 11.861C112.685 11.861 111.367 10.523 111.367 7.84697V3.89331C111.367 3.08849 111.498 2.43457 111.76 1.93156C112.021 1.42855 112.374 1.0362 112.816 0.754516C113.279 0.45271 113.822 0.251505 114.446 0.150903C115.09 0.0503011 115.774 0 116.498 0H128.54C129.305 0 129.999 0.0603612 130.623 0.181083C131.247 0.281686 131.77 0.48289 132.192 0.784696C132.635 1.0865 132.977 1.51909 133.218 2.08247C133.46 2.62572 133.58 3.33999 133.58 4.22529C133.58 4.32589 133.57 4.4265 133.55 4.5271C133.55 4.6277 133.55 4.70818 133.55 4.76854V4.97981L129.597 5.70414V3.50096H115.653V8.17896H129.566C130.955 8.17896 132.001 8.46065 132.705 9.02402C133.43 9.58739 133.792 10.6035 133.792 12.0723V16.539C133.792 17.4042 133.651 18.0983 133.369 18.6215C133.108 19.1446 132.725 19.547 132.222 19.8287C131.739 20.1104 131.146 20.3015 130.442 20.4021C129.758 20.4826 128.993 20.5229 128.148 20.5229H114.567C113.158 20.5229 112.132 20.1506 111.488 19.4062C110.864 18.6617 110.553 17.5752 110.553 16.1467C110.553 16.0461 110.553 15.9253 110.553 15.7845C110.573 15.6436 110.593 15.5129 110.613 15.3921C110.633 15.2513 110.653 15.1105 110.673 14.9696L114.476 14.3358V16.9012H129.506V11.861H115.321Z" fill="black"/>
<path d="M152.621 20.5229H147.883V3.50096H138.315V0H162.007V3.50096H152.621V20.5229Z" fill="black"/>
<path d="M177.379 0H182.118V8.1186H197.298V0H202.037V20.5229H197.298V11.861H182.118V20.5229H177.379V0Z" fill="black"/>
<path d="M211.156 20.5229H206.568L218.218 0H222.745L234.606 20.5229H229.385L226.91 16.1768H213.54L211.156 20.5229ZM215.562 12.4344H224.918L220.24 4.22529L215.562 12.4344Z" fill="black"/>
<path d="M239.126 0H243.864V20.5229H239.126V0Z" fill="black"/>
<path d="M266.469 12.9475L275.403 20.5229H269.035L260.735 12.9475H256.449V20.5229H251.711V0H269.186C270.715 0 271.882 0.301807 272.687 0.905419C273.511 1.48891 273.924 2.55529 273.924 4.10457V9.02402C273.924 9.80872 273.793 10.4626 273.532 10.9858C273.29 11.4888 272.948 11.8912 272.505 12.193C272.063 12.4747 271.55 12.6759 270.966 12.7966C270.403 12.8972 269.809 12.9475 269.186 12.9475H266.469ZM267.586 9.26546C267.928 9.26546 268.22 9.2554 268.461 9.23528C268.703 9.21516 268.894 9.16486 269.035 9.08438C269.196 8.98378 269.306 8.83287 269.367 8.63167C269.427 8.41034 269.457 8.1186 269.457 7.75643V5.13071C269.457 4.74842 269.427 4.44662 269.367 4.22529C269.306 4.00397 269.206 3.843 269.065 3.7424C268.924 3.62168 268.733 3.55126 268.491 3.53114C268.25 3.51102 267.948 3.50096 267.586 3.50096H256.449V9.26546H267.586Z" fill="black"/>
<path d="M159.587 26.559H165.718C166.255 26.559 166.664 26.6649 166.947 26.8767C167.236 27.0814 167.381 27.4556 167.381 27.9992V29.7253C167.381 30.0007 167.335 30.2301 167.243 30.4137C167.158 30.5902 167.038 30.7314 166.883 30.8373C166.728 30.9361 166.548 31.0067 166.343 31.0491C166.145 31.0844 165.937 31.102 165.718 31.102H161.249V33.76H159.587V26.559ZM165.168 29.8101C165.288 29.8101 165.39 29.8065 165.475 29.7995C165.559 29.7924 165.626 29.7748 165.676 29.7465C165.725 29.7112 165.761 29.6583 165.782 29.5877C165.803 29.51 165.813 29.4077 165.813 29.2806V28.3593C165.813 28.2251 165.803 28.1192 165.782 28.0416C165.761 27.9639 165.725 27.9074 165.676 27.8721C165.633 27.8368 165.57 27.8157 165.485 27.8086C165.4 27.7945 165.295 27.7874 165.168 27.7874H161.249V29.8101H165.168Z" fill="#B6B6B6"/>
<path d="M174.889 31.102L178.024 33.76H175.79L172.877 31.102H171.374V33.76H169.711V26.559H175.843C176.379 26.559 176.789 26.6649 177.071 26.8767C177.36 27.0814 177.505 27.4556 177.505 27.9992V29.7253C177.505 30.0007 177.459 30.2301 177.367 30.4137C177.283 30.5902 177.163 30.7314 177.007 30.8373C176.852 30.9361 176.672 31.0067 176.467 31.0491C176.27 31.0844 176.061 31.102 175.843 31.102H174.889ZM175.281 29.8101C175.401 29.8101 175.504 29.8065 175.588 29.7995C175.673 29.7924 175.74 29.7748 175.79 29.7465C175.846 29.7112 175.885 29.6583 175.906 29.5877C175.927 29.51 175.938 29.4077 175.938 29.2806V28.3593C175.938 28.2251 175.927 28.1192 175.906 28.0416C175.885 27.9639 175.85 27.9074 175.8 27.8721C175.751 27.8298 175.684 27.8051 175.599 27.798C175.514 27.791 175.408 27.7874 175.281 27.7874H171.374V29.8101H175.281Z" fill="#B6B6B6"/>
<path d="M181.6 33.76C180.993 33.76 180.552 33.64 180.277 33.4C180.008 33.1529 179.874 32.7328 179.874 32.1398V27.9992C179.874 27.6956 179.92 27.4521 180.012 27.2685C180.111 27.0779 180.238 26.9297 180.393 26.8238C180.556 26.7179 180.739 26.6473 180.944 26.612C181.156 26.5767 181.374 26.559 181.6 26.559H187.086C187.432 26.559 187.714 26.5943 187.933 26.6649C188.152 26.7285 188.325 26.8238 188.452 26.9508C188.579 27.0709 188.667 27.2191 188.717 27.3956C188.766 27.5721 188.791 27.7733 188.791 27.9992V32.1398C188.791 32.4363 188.759 32.6869 188.696 32.8917C188.639 33.0964 188.544 33.2658 188.41 33.4C188.283 33.527 188.11 33.6188 187.891 33.6753C187.672 33.7318 187.404 33.76 187.086 33.76H181.6ZM187.128 32.4363V27.8404H181.537V32.4363H187.128Z" fill="#B6B6B6"/>
<path d="M191.439 26.559H198.767V27.7874H193.101V29.7889H196.151V31.0808H193.101V33.76H191.439V26.559Z" fill="#B6B6B6"/>
<path d="M200.674 26.559H208.139V27.7874H202.336V29.4288H205.735V30.7208H202.336V32.4575H208.192V33.76H200.674V26.559Z" fill="#B6B6B6"/>
<path d="M212.147 30.7208C211.222 30.7208 210.759 30.2513 210.759 29.3123V27.9251C210.759 27.6427 210.805 27.4133 210.897 27.2368C210.989 27.0603 211.112 26.9226 211.268 26.8238C211.43 26.7179 211.621 26.6473 211.84 26.612C212.066 26.5767 212.306 26.559 212.56 26.559H216.785C217.053 26.559 217.297 26.5802 217.516 26.6226C217.735 26.6579 217.918 26.7285 218.066 26.8344C218.222 26.9403 218.342 27.092 218.426 27.2897C218.511 27.4803 218.554 27.7309 218.554 28.0416C218.554 28.0769 218.55 28.1122 218.543 28.1475C218.543 28.1828 218.543 28.211 218.543 28.2322V28.3063L217.156 28.5605V27.7874H212.263V29.4288H217.145C217.632 29.4288 217.999 29.5277 218.246 29.7253C218.501 29.923 218.628 30.2795 218.628 30.7949V32.3622C218.628 32.6658 218.578 32.9093 218.479 33.0929C218.388 33.2764 218.253 33.4176 218.077 33.5165C217.908 33.6153 217.699 33.6824 217.452 33.7177C217.212 33.7459 216.944 33.76 216.647 33.76H211.882C211.388 33.76 211.028 33.6294 210.802 33.3682C210.583 33.107 210.474 32.7258 210.474 32.2245C210.474 32.1892 210.474 32.1469 210.474 32.0974C210.481 32.048 210.488 32.0021 210.495 31.9598C210.502 31.9104 210.509 31.8609 210.516 31.8115L211.85 31.5891V32.4893H217.124V30.7208H212.147Z" fill="#B6B6B6"/>
<path d="M222.788 30.7208C221.863 30.7208 221.401 30.2513 221.401 29.3123V27.9251C221.401 27.6427 221.447 27.4133 221.539 27.2368C221.63 27.0603 221.754 26.9226 221.909 26.8238C222.072 26.7179 222.262 26.6473 222.481 26.612C222.707 26.5767 222.947 26.559 223.201 26.559H227.426C227.695 26.559 227.938 26.5802 228.157 26.6226C228.376 26.6579 228.56 26.7285 228.708 26.8344C228.863 26.9403 228.983 27.092 229.068 27.2897C229.153 27.4803 229.195 27.7309 229.195 28.0416C229.195 28.0769 229.191 28.1122 229.184 28.1475C229.184 28.1828 229.184 28.211 229.184 28.2322V28.3063L227.797 28.5605V27.7874H222.905V29.4288H227.786C228.274 29.4288 228.641 29.5277 228.888 29.7253C229.142 29.923 229.269 30.2795 229.269 30.7949V32.3622C229.269 32.6658 229.22 32.9093 229.121 33.0929C229.029 33.2764 228.895 33.4176 228.718 33.5165C228.549 33.6153 228.341 33.6824 228.094 33.7177C227.854 33.7459 227.585 33.76 227.289 33.76H222.523C222.029 33.76 221.669 33.6294 221.443 33.3682C221.224 33.107 221.115 32.7258 221.115 32.2245C221.115 32.1892 221.115 32.1469 221.115 32.0974C221.122 32.048 221.129 32.0021 221.136 31.9598C221.143 31.9104 221.15 31.8609 221.157 31.8115L222.492 31.5891V32.4893H227.765V30.7208H222.788Z" fill="#B6B6B6"/>
<path d="M231.915 26.559H233.578V33.76H231.915V26.559Z" fill="#B6B6B6"/>
<path d="M237.951 33.76C237.344 33.76 236.903 33.64 236.628 33.4C236.359 33.1529 236.225 32.7328 236.225 32.1398V27.9992C236.225 27.6956 236.271 27.4521 236.363 27.2685C236.462 27.0779 236.589 26.9297 236.744 26.8238C236.906 26.7179 237.09 26.6473 237.295 26.612C237.507 26.5767 237.725 26.559 237.951 26.559H243.437C243.783 26.559 244.065 26.5943 244.284 26.6649C244.503 26.7285 244.676 26.8238 244.803 26.9508C244.93 27.0709 245.018 27.2191 245.068 27.3956C245.117 27.5721 245.142 27.7733 245.142 27.9992V32.1398C245.142 32.4363 245.11 32.6869 245.046 32.8917C244.99 33.0964 244.895 33.2658 244.76 33.4C244.633 33.527 244.46 33.6188 244.242 33.6753C244.023 33.7318 243.754 33.76 243.437 33.76H237.951ZM243.479 32.4363V27.8404H237.888V32.4363H243.479Z" fill="#B6B6B6"/>
<path d="M247.789 26.559H248.923L254.832 31.4832V26.559H256.314V33.76H255.181L249.272 28.8146V33.76H247.789V26.559Z" fill="#B6B6B6"/>
<path d="M259.517 33.76H257.907L261.995 26.559H263.583L267.745 33.76H265.913L265.045 32.2351H260.353L259.517 33.76ZM261.063 30.922H264.346L262.704 28.0416L261.063 30.922Z" fill="#B6B6B6"/>
<path d="M269.331 26.559H270.993V32.4363H276.479V33.76H269.331V26.559Z" fill="#B6B6B6"/>
</svg>
